<svg width="64" height="64" viewBox="0 0 64 64" fill="none" xmlns="http://www.w3.org/2000/svg">
<path d="M53.3333 8H21.3333C15.44 8 10.6667 12.7733 10.6667 18.6667V34.6667C10.6667 40.56 15.44 45.3333 21.3333 45.3333H53.3333C59.2267 45.3333 64 40.56 64 34.6667V18.6667C64 12.7733 59.2267 8 53.3333 8ZM58.6667 34.6667C58.6667 37.6 56.2667 40 53.3333 40H21.3333C18.4 40 16 37.6 16 34.6667V18.6667C16 15.7333 18.4 13.3333 21.3333 13.3333H53.3333C56.2667 13.3333 58.6667 15.7333 58.6667 18.6667V34.6667ZM50.6667 53.3333C50.6667 54.8 49.4667 56 48 56H13.3333C5.97333 56 0 50.0267 0 42.6667V24C0 22.5333 1.2 21.3333 2.66667 21.3333C4.13333 21.3333 5.33333 22.5333 5.33333 24V42.6667C5.33333 47.0667 8.93333 50.6667 13.3333 50.6667H48C49.4667 50.6667 50.6667 51.8667 50.6667 53.3333ZM37.3333 18.6667C32.9333 18.6667 29.3333 22.2667 29.3333 26.6667C29.3333 31.0667 32.9333 34.6667 37.3333 34.6667C41.7333 34.6667 45.3333 31.0667 45.3333 26.6667C45.3333 22.2667 41.7333 18.6667 37.3333 18.6667ZM37.3333 29.3333C35.8667 29.3333 34.6667 28.1333 34.6667 26.6667C34.6667 25.2 35.8667 24 37.3333 24C38.8 24 40 25.2 40 26.6667C40 28.1333 38.8 29.3333 37.3333 29.3333Z" fill="#020007"/>
</svg>
