<svg width="304" height="285" viewBox="0 0 304 285" fill="none" xmlns="http://www.w3.org/2000/svg">
<path d="M268.196 89.6237C134.812 2.06239 162.139 27.6203 105.051 8.15403C85.1519 1.04218 68.6337 -0.0212755 60.2369 13.4438L29.2838 44.5594C8.24869 70.9952 9.64862 76.6074 6.97852 85.9973C-2.93051 167.74 8.521 166.714 10.7291 201.505C25.982 231.118 44.4025 257.546 75.5669 271.163C94.7993 284.731 121.433 283.399 149.725 278.728L196.247 267.399C214.488 270.142 230.203 257.977 246.195 247.441C279.944 223.75 288.667 190.125 300.271 157.643C302.605 136.634 296.628 118.024 282.883 101.654L268.196 89.6237Z" fill="#A733FF" stroke="black" stroke-width="5" stroke-linecap="round"/>
<path d="M230.653 237.999C248.557 210.158 277.216 187.661 242.449 133.657C210.557 108.772 185.599 101.09 157.843 86.4646C133.949 74.436 110.238 62.7692 93.129 64.2201C21.8797 57.3801 51.2133 74.4017 31.9629 79.8975" fill="#A733FF"/>
<path d="M230.653 237.999C248.557 210.158 277.216 187.661 242.449 133.657C210.557 108.772 185.599 101.09 157.843 86.4646C133.949 74.436 110.238 62.7692 93.129 64.2201C21.8797 57.3801 51.2133 74.4017 31.9629 79.8975" stroke="black" stroke-width="5" stroke-linecap="round"/>
<path d="M81.1865 112.527C75.0875 144.431 69.4049 177.163 52.0703 186.742Z" fill="#A733FF"/>
<path d="M81.1865 112.527C75.0875 144.431 69.4049 177.163 52.0703 186.742" stroke="black" stroke-width="5" stroke-linecap="round"/>
<path d="M122.05 245.179C119.527 218.009 159.14 206.514 191.74 192.41Z" fill="#A733FF"/>
<path d="M122.05 245.179C119.527 218.009 159.14 206.514 191.74 192.41" stroke="black" stroke-width="5" stroke-linecap="round"/>
e-linecap="round"/>
</svg>
