<?xml version="1.0" encoding="UTF-8"?>
<svg width="24" height="24" viewBox="0 0 24 24" fill="none" xmlns="http://www.w3.org/2000/svg">
  <!-- Upper jaw gum line -->
  <path d="M3 12C3 8 6 5 12 5C18 5 21 8 21 12C21 13 20.5 13.5 20 14" 
        stroke="currentColor" stroke-width="2" stroke-linecap="round" fill="none"/>
  
  <!-- Upper gum detail -->
  <path d="M4 11.5C4 9.5 7 7.5 12 7.5C17 7.5 20 9.5 20 11.5C20 12 19.8 12.3 19.5 12.5" 
        stroke="currentColor" stroke-width="1.5" stroke-linecap="round" fill="none" opacity="0.7"/>
  
  <!-- Individual teeth with detailed shapes -->
  <!-- Left molars -->
  <path d="M5 10.5C5 9.5 5.5 9 6 9C6.5 9 7 9.5 7 10.5L7 13C7 13.5 6.5 14 6 14C5.5 14 5 13.5 5 13L5 10.5Z" 
        fill="currentColor" opacity="0.9"/>
  
  <!-- Left premolars -->
  <path d="M7.5 10C7.5 9 8 8.5 8.5 8.5C9 8.5 9.5 9 9.5 10L9.5 13.5C9.5 14 9 14.5 8.5 14.5C8 14.5 7.5 14 7.5 13.5L7.5 10Z" 
        fill="currentColor" opacity="0.9"/>
  
  <!-- Left canine -->
  <path d="M10 9.5C10 8.5 10.5 8 11 8C11.5 8 12 8.5 12 9.5L12 14C12 14.5 11.5 15 11 15C10.5 15 10 14.5 10 14L10 9.5Z" 
        fill="currentColor" opacity="0.9"/>
  
  <!-- Left central incisor -->
  <path d="M12.5 9C12.5 8 13 7.5 13.5 7.5C14 7.5 14.5 8 14.5 9L14.5 14.5C14.5 15 14 15.5 13.5 15.5C13 15.5 12.5 15 12.5 14.5L12.5 9Z" 
        fill="currentColor" opacity="0.9"/>
  
  <!-- Right central incisor -->
  <path d="M15 9C15 8 15.5 7.5 16 7.5C16.5 7.5 17 8 17 9L17 14.5C17 15 16.5 15.5 16 15.5C15.5 15.5 15 15 15 14.5L15 9Z" 
        fill="currentColor" opacity="0.9"/>
  
  <!-- Right canine -->
  <path d="M17.5 9.5C17.5 8.5 18 8 18.5 8C19 8 19.5 8.5 19.5 9.5L19.5 14C19.5 14.5 19 15 18.5 15C18 15 17.5 14.5 17.5 14L17.5 9.5Z" 
        fill="currentColor" opacity="0.9"/>
  
  <!-- Right premolars -->
  <path d="M14.5 10C14.5 9 15 8.5 15.5 8.5C16 8.5 16.5 9 16.5 10L16.5 13.5C16.5 14 16 14.5 15.5 14.5C15 14.5 14.5 14 14.5 13.5L14.5 10Z" 
        fill="currentColor" opacity="0.9"/>
  
  <!-- Right molars -->
  <path d="M17 10.5C17 9.5 17.5 9 18 9C18.5 9 19 9.5 19 10.5L19 13C19 13.5 18.5 14 18 14C17.5 14 17 13.5 17 13L17 10.5Z" 
        fill="currentColor" opacity="0.9"/>
  
  <!-- Gum line detail -->
  <path d="M5 13.5C8 13 10 13 12 13C14 13 16 13 19 13.5" 
        stroke="currentColor" stroke-width="1.2" stroke-linecap="round" fill="none" opacity="0.6"/>
  
  <!-- Tooth separation lines -->
  <line x1="7" y1="10" x2="7" y2="13" stroke="currentColor" stroke-width="0.5" opacity="0.3"/>
  <line x1="9.5" y1="10" x2="9.5" y2="13" stroke="currentColor" stroke-width="0.5" opacity="0.3"/>
  <line x1="12" y1="9.5" x2="12" y2="14" stroke="currentColor" stroke-width="0.5" opacity="0.3"/>
  <line x1="14.5" y1="9" x2="14.5" y2="14.5" stroke="currentColor" stroke-width="0.5" opacity="0.3"/>
  <line x1="17" y1="9" x2="17" y2="14.5" stroke="currentColor" stroke-width="0.5" opacity="0.3"/>
  <line x1="19.5" y1="9.5" x2="19.5" y2="14" stroke="currentColor" stroke-width="0.5" opacity="0.3"/>
</svg> 