<svg width="80" height="80" viewBox="0 0 80 80" fill="none" xmlns="http://www.w3.org/2000/svg">
<path d="M68 11.64C60.52 4.12 50.56 0 39.96 0C18.12 0 0.320001 17.8 0.320001 39.64C0.320001 46.64 2.16 53.44 5.6 59.44L0 80L21 74.48C26.8 77.64 33.32 79.32 39.96 79.32C61.8 79.32 79.6 61.52 79.6 39.68C79.6 29.08 75.48 19.12 68 11.64ZM39.96 72.6C34.04 72.6 28.24 71 23.16 68L21.96 67.28L9.48 70.56L12.8 58.4L12 57.16C8.72 51.92 6.96 45.84 6.96 39.64C6.96 21.48 21.76 6.68 39.92 6.68C48.72 6.68 57 10.12 63.2 16.36C69.44 22.6 72.84 30.88 72.84 39.68C72.92 57.84 58.12 72.6 39.96 72.6ZM58.04 47.96C57.04 47.48 52.16 45.08 51.28 44.72C50.36 44.4 49.72 44.24 49.04 45.2C48.36 46.2 46.48 48.44 45.92 49.08C45.36 49.76 44.76 49.84 43.76 49.32C42.76 48.84 39.56 47.76 35.8 44.4C32.84 41.76 30.88 38.52 30.28 37.52C29.72 36.52 30.2 36 30.72 35.48C31.16 35.04 31.72 34.32 32.2 33.76C32.68 33.2 32.88 32.76 33.2 32.12C33.52 31.44 33.36 30.88 33.12 30.4C32.88 29.92 30.88 25.04 30.08 23.04C29.28 21.12 28.44 21.36 27.84 21.32C27.24 21.32 26.6 21.32 25.92 21.32C25.24 21.32 24.2 21.56 23.28 22.56C22.4 23.56 19.84 25.96 19.84 30.84C19.84 35.72 23.4 40.44 23.88 41.08C24.36 41.76 30.88 51.76 40.8 56.04C43.16 57.08 45 57.68 46.44 58.12C48.8 58.88 50.96 58.76 52.68 58.52C54.6 58.24 58.56 56.12 59.36 53.8C60.2 51.48 60.2 49.52 59.92 49.08C59.64 48.64 59.04 48.44 58.04 47.96Z" fill="#009C03"/>
</svg>
