<svg width="368" height="328" viewBox="0 0 368 328" fill="none" xmlns="http://www.w3.org/2000/svg">
<path d="M13.3879 154.751C14.0395 160.758 49.1205 222.616 57.9648 250.557C69.9239 280.723 88.9673 307.994 139.674 322.323C181.078 317.239 223.071 316.152 257.924 266.598L343.609 136.65L359.234 95.3111C370.517 65.4622 346.083 38.0156 323.208 26.251L261.182 9.70923C224.956 7.388 200.91 -3.23006 130.126 17.9868L63.7082 32.4682C39.5464 43.123 7.28124 38.9525 6.6539 92.6638C7.92371 113.194 -0.1177 132.148 13.3879 154.751Z" fill="white" stroke="black" stroke-width="10" stroke-linecap="round"/>
<path d="M76.9733 234.228L61.7878 107.463C70.0244 107.485 52.5202 81.8725 83.4365 70.4511C196.335 26.4855 261.58 58.7127 279.994 68.3794C298.408 78.0461 314.395 104.481 310.862 132.254C307.329 160.026 299.598 166.695 294.356 180.486" fill="white"/>
<path d="M76.9733 234.228L61.7878 107.463C70.0244 107.485 52.5202 81.8725 83.4365 70.4511C196.335 26.4855 261.58 58.7127 279.994 68.3794C298.408 78.0461 314.395 104.481 310.862 132.254C307.329 160.026 299.598 166.695 294.356 180.486" stroke="black" stroke-width="10" stroke-linecap="round"/>
</svg>
