<svg width="309" height="290" viewBox="0 0 309 290" fill="none" xmlns="http://www.w3.org/2000/svg">
<path d="M37.9019 92.3791C171.285 4.81777 143.959 30.3757 201.047 10.9094C220.946 3.79754 237.464 2.73411 245.861 16.1992L276.814 47.3148C297.849 73.7505 296.449 79.3628 299.119 88.7526C309.028 170.496 297.577 169.47 295.369 204.26C280.116 233.873 261.695 260.301 230.531 273.919C211.298 287.486 184.665 286.154 156.373 281.483L109.851 270.154C91.61 272.897 75.8943 260.732 59.9027 250.196C26.1538 226.505 17.4311 192.88 5.82723 160.399C3.49281 139.39 9.4702 120.779 23.2152 104.41L37.9019 92.3791Z" fill="white" stroke="black" stroke-width="10" stroke-linecap="round"/>
<path d="M75.4446 240.754C57.5414 212.913 28.8816 190.416 63.6487 136.412C95.5406 111.527 120.499 103.846 148.255 89.2199C172.149 77.1914 195.86 65.5246 212.969 66.9755C284.218 60.1355 254.885 77.1571 274.135 82.6529" fill="white"/>
<path d="M75.4446 240.754C57.5414 212.913 28.8816 190.416 63.6487 136.412C95.5406 111.527 120.499 103.846 148.255 89.2199C172.149 77.1914 195.86 65.5246 212.969 66.9755C284.218 60.1355 254.885 77.1571 274.135 82.6529" stroke="black" stroke-width="10" stroke-linecap="round"/>
<path d="M224.912 115.283C231.011 147.187 236.693 179.918 254.028 189.497Z" fill="white"/>
<path d="M224.912 115.283C231.011 147.187 236.693 179.918 254.028 189.497" stroke="black" stroke-width="10" stroke-linecap="round"/>
<path d="M184.047 247.935C186.57 220.765 146.957 209.27 114.357 195.166Z" fill="white"/>
<path d="M184.047 247.935C186.57 220.765 146.957 209.27 114.357 195.166" stroke="black" stroke-width="10" stroke-linecap="round"/>
</svg>
