<svg width="299" height="329" viewBox="0 0 299 329" fill="none" xmlns="http://www.w3.org/2000/svg">
<path d="M92.7312 286.113C38.6857 268.082 13.3766 235.094 7.63271 191.924C0.955492 149.714 8.32865 108.544 33.8174 68.7162C56.1063 6.69049 78.2239 10.1252 100.361 5.95912C120.109 8.4495 138.056 7.31714 155.536 5.2415C208.37 2.90047 228.051 26.8603 240.783 42.5338C285.366 102.233 280.444 137.017 291.286 179.735C296.864 226.904 294.404 267.235 270.31 289.164C197.003 343.992 184.543 317.126 153.863 314.721C96.7335 290.659 111.428 294.984 92.7312 286.113Z" fill="white" stroke="black" stroke-width="10" stroke-linecap="round"/>
<path d="M59.271 224.818C61.8393 166.431 66.7474 111.037 94.1215 84.3915C121.208 56.015 156.06 35.4437 203.753 27.7817" fill="white"/>
<path d="M59.271 224.818C61.8393 166.431 66.7474 111.037 94.1215 84.3915C121.208 56.015 156.06 35.4437 203.753 27.7817" stroke="black" stroke-width="10" stroke-linecap="round"/>
<path d="M226.031 79.5645C258.357 205.315 272.371 234.993 187.897 157.051Z" fill="white"/>
<path d="M226.031 79.5645C258.357 205.315 272.371 234.993 187.897 157.051" stroke="black" stroke-width="10" stroke-linecap="round"/>
<path d="M150.713 200.919C221.884 287.051 174.677 274.313 98.0322 236.988Z" fill="white"/>
<path d="M150.713 200.919C221.884 287.051 174.677 274.313 98.0322 236.988" stroke="black" stroke-width="10" stroke-linecap="round"/>
</svg>
