<svg width="369" height="296" viewBox="0 0 369 296" fill="none" xmlns="http://www.w3.org/2000/svg">
<path d="M93.2005 17.9704C11.6062 46.3853 6.24217 85.5911 5.8497 125.501C1.69904 301.043 150.712 298.072 179.572 284.577C224.975 290.199 256.508 284.976 281.323 274.498C327.656 270.944 349.974 243.247 357.379 200.559C364.161 177.645 366.473 152.481 355.002 120.38C346.616 102.451 352.319 85.2631 300.837 65.0659C246.55 59.0824 229.366 45.3134 206.962 30.3373C174.734 -4.63555 134.645 2.99424 93.2005 17.9704Z" fill="white" stroke="black" stroke-width="10" stroke-linecap="round"/>
<path d="M170.786 18.1733C171.153 26.795 177.417 35.4321 156.063 43.9969C119.085 73.9813 121.588 96.1769 130.01 117.205C147.131 149.733 141.025 165.136 123.831 172.361C70.5025 224.087 82.6492 234.7 68.4238 261.872" fill="white"/>
<path d="M170.786 18.1733C171.153 26.795 177.417 35.4321 156.063 43.9969C119.085 73.9813 121.588 96.1769 130.01 117.205C147.131 149.733 141.025 165.136 123.831 172.361C70.5025 224.087 82.6492 234.7 68.4238 261.872" stroke="black" stroke-width="10" stroke-linecap="round"/>
<path d="M104.701 235.243C154.54 228.176 194.664 208.47 205.784 151.024C211.663 117.762 192.407 98.7766 166.305 83.6792" fill="white"/>
<path d="M104.701 235.243C154.54 228.176 194.664 208.47 205.784 151.024C211.663 117.762 192.407 98.7766 166.305 83.6792" stroke="black" stroke-width="10" stroke-linecap="round"/>
<path d="M285.227 100.37C220.095 106.902 199.143 123.617 207.526 144.132C207.35 198.255 224.515 185.412 236.682 202.829" fill="white"/>
<path d="M285.227 100.37C220.095 106.902 199.143 123.617 207.526 144.132C207.35 198.255 224.515 185.412 236.682 202.829" stroke="black" stroke-width="10" stroke-linecap="round"/>
<path d="M177.105 238.88C186.348 226.836 183.253 214.759 178.924 202.678Z" fill="white"/>
<path d="M177.105 238.88C186.348 226.836 183.253 214.759 178.924 202.678" stroke="black" stroke-width="10" stroke-linecap="round"/>
<path d="M230.957 84.7104C208.22 105.619 205.924 116.373 205.849 126.024Z" fill="white"/>
<path d="M230.957 84.7104C208.22 105.619 205.924 116.373 205.849 126.024" stroke="black" stroke-width="10" stroke-linecap="round"/>
<path d="M305.971 79.7344C321.937 115.356 306.045 144.536 309.182 170.26C312.156 206.12 301.518 236.644 263.267 256.347C239.746 269.593 211.204 272.295 185.633 274.248" fill="white"/>
<path d="M305.971 79.7344C321.937 115.356 306.045 144.536 309.182 170.26C312.156 206.12 301.518 236.644 263.267 256.347C239.746 269.593 211.204 272.295 185.633 274.248" stroke="black" stroke-width="10" stroke-linecap="round"/>
</svg>
