<svg width="354" height="288" viewBox="0 0 354 288" fill="none" xmlns="http://www.w3.org/2000/svg">
<path d="M129.194 5.19824C31.4367 19.1444 -14.928 69.5699 14.6678 173.913C45.8395 212.206 74.179 253.317 127.093 269.982C145.841 269.594 162.305 271.478 173.549 278.555C189.782 282.995 208.38 282.965 228.475 280.107C266.318 260.009 317.202 276.73 338.518 209.972C356.115 156.558 353.111 109.523 310.703 74.6877C226.888 4.59435 180.82 10.4897 129.194 5.19824Z" fill="white" stroke="black" stroke-width="10" stroke-linecap="round"/>
<path d="M153.119 12.303C140.729 26.6762 129.209 40.2001 133.834 55.6839C128.438 73.6038 128.454 78.8694 127.576 85.4758C119.915 99.7079 119.342 103.369 119.07 106.58C119.325 131.27 123.475 136.751 127.424 143.222C138.582 175.899 128.366 182.789 121.658 193.911C114.861 204.928 105.364 199.477 101.844 230.479" fill="white"/>
<path d="M153.119 12.303C140.729 26.6762 129.209 40.2001 133.834 55.6839C128.438 73.6038 128.454 78.8694 127.576 85.4758C119.915 99.7079 119.342 103.369 119.07 106.58C119.325 131.27 123.475 136.751 127.424 143.222C138.582 175.899 128.366 182.789 121.658 193.911C114.861 204.928 105.364 199.477 101.844 230.479" stroke="black" stroke-width="10" stroke-linecap="round"/>
<path d="M225.772 236.438C178.294 219.996 175.278 194.783 183.7 167.313C178.697 123.111 196.694 97.4082 209.314 67.3799" fill="white"/>
<path d="M225.772 236.438C178.294 219.996 175.278 194.783 183.7 167.313C178.697 123.111 196.694 97.4082 209.314 67.3799" stroke="black" stroke-width="10" stroke-linecap="round"/>
<path d="M252.924 87.2124C233.199 89.603 213.479 90.2235 193.736 99.7336Z" fill="white"/>
<path d="M252.924 87.2124C233.199 89.603 213.479 90.2235 193.736 99.7336" stroke="black" stroke-width="10" stroke-linecap="round"/>
<path d="M161.448 58.804C182.973 77.2818 189.641 92.004 196.534 106.783Z" fill="white"/>
<path d="M161.448 58.804C182.973 77.2818 189.641 92.004 196.534 106.783" stroke="black" stroke-width="10" stroke-linecap="round"/>
<path d="M130.009 231.962C139.085 222.705 155.775 208.906 183.645 188.44Z" fill="white"/>
<path d="M130.009 231.962C139.085 222.705 155.775 208.906 183.645 188.44" stroke="black" stroke-width="10" stroke-linecap="round"/>
<path d="M90.0703 239.033C127.389 213.645 177.229 234.905 193.73 158.27C196.648 133.834 213.372 104.994 175.052 48.7375" stroke="black" stroke-width="10" stroke-linecap="round"/>
</svg>
