<svg width="446" height="462" viewBox="0 0 446 462" fill="none" xmlns="http://www.w3.org/2000/svg">
<path d="M71.2338 51.8638C170.258 -34.0831 243.262 15.5591 316.27 65.1814C335.986 89.6463 355.272 114.11 382.275 138.594C464.964 218.061 449.411 271.992 401.525 317.518C371.68 350.629 343.097 383.114 328.047 408.875C310.797 426.636 294.938 440.261 281.468 446.782C217.725 475.404 193.388 435.484 157.606 415.471C29.0484 347.713 -16.9896 253.327 16.0905 133.41C19.7348 87.1777 41.479 64.3432 71.2338 51.8638Z" fill="white" stroke="black" stroke-width="10"/>
<path d="M86.4539 156.129C65.6546 59.7082 115.846 70.3791 143.079 46.418C190.392 35.0419 230.024 7.3403 309.232 63.7545C368.223 145.842 350.586 191.926 358.041 249.798C361.683 305.054 345.093 338.637 322.56 352.523C316.953 382.329 318.277 410.853 268.818 436.889C226.728 474.419 197.146 442.138 166.049 418.31C119.224 405.724 111.703 374.96 112.753 332.255C17.4627 290.814 70.7467 212.554 86.4539 156.129Z" fill="white" stroke="black" stroke-width="10"/>
<path d="M271.196 66.4722C261.508 77.8461 248.576 79.4061 245.726 111.476C250.106 144.352 232.05 177.168 214.482 209.986C196.316 227.664 202.213 275.584 197.319 309.942C215.115 326.903 232.955 327.094 250.8 325.575L284.525 355.24" fill="white"/>
<path d="M271.196 66.4722C261.508 77.8461 248.576 79.4061 245.726 111.476C250.106 144.352 232.05 177.168 214.482 209.986C196.316 227.664 202.213 275.584 197.319 309.942C215.115 326.903 232.955 327.094 250.8 325.575L284.525 355.24" stroke="black" stroke-width="10" stroke-linecap="round"/>
<path d="M104.73 168.854C116.805 181.94 125.821 197.053 159.59 195.758C178.845 193.294 198.097 192.051 217.314 204.36" fill="white"/>
<path d="M104.73 168.854C116.805 181.94 125.821 197.053 159.59 195.758C178.845 193.294 198.097 192.051 217.314 204.36" stroke="black" stroke-width="10" stroke-linecap="round"/>
<path d="M317.377 180.678C280.476 187.022 225.934 184.487 215.906 204.356Z" fill="white"/>
<path d="M317.377 180.678C280.476 187.022 225.934 184.487 215.906 204.356" stroke="black" stroke-width="10" stroke-linecap="round"/>
<path d="M125.448 325.246C163.025 342.253 178.943 324.403 198.72 312.762Z" fill="white"/>
<path d="M125.448 325.246C163.025 342.253 178.943 324.403 198.72 312.762" stroke="black" stroke-width="10" stroke-linecap="round"/>
<path d="M156.297 377.44L173.335 325.372Z" fill="white"/>
<path d="M156.297 377.44L173.335 325.372" stroke="black" stroke-width="10" stroke-linecap="round"/>
</svg>
