<svg width="454" height="439" viewBox="0 0 454 439" fill="none" xmlns="http://www.w3.org/2000/svg">
<path d="M19.9198 227.976C-0.238867 200.352 2.39744 160.142 15.9931 113.881C67.8726 -4.94939 161.076 -30.5601 306.273 61.1198C351.817 79.5042 387.923 114.855 411.674 150.129C435.039 184.826 456.731 201.529 445.182 262.893C418.517 366.26 372.458 447.345 241.923 431.375C190.058 425.066 144.256 438.648 78.6579 387.286C53.2646 345.255 4.33224 348.055 19.9198 227.976Z" fill="white" stroke="black" stroke-width="10" stroke-linecap="round"/>
<path d="M79.4766 74.6104C134.104 -43.4715 223.488 50.4074 310.322 128.736C328.091 150.091 350.652 163.507 358.017 202.101C384.782 270.15 318.41 308.905 287.193 355.437C255.975 401.968 223.744 425.173 167.338 407.236C35.434 358.615 30.3941 294.86 50.9057 228.057C9.25043 129.183 37.4658 123.98 48.4354 95.6561C58.7791 89.9475 69.1148 87.2517 79.4766 74.6104Z" fill="white" stroke="black" stroke-width="10"/>
<path d="M289.191 130.09C275.926 137.299 266.36 137.157 256.778 137.047C231.189 133.249 220.436 146.851 217.257 169.338C216.917 183.477 220.693 199.001 198.851 205.91C180.031 223.074 189.42 230.917 191.717 241.103C191.206 257.085 190.708 267.811 190.216 276.31C189.785 333.68 205.499 332.45 215.369 352.432C221.316 358.911 228.667 364.925 223.761 374.99L235.003 384.878" fill="white"/>
<path d="M289.191 130.09C275.926 137.299 266.36 137.157 256.778 137.047C231.189 133.249 220.436 146.851 217.257 169.338C216.917 183.477 220.693 199.001 198.851 205.91C180.031 223.074 189.42 230.917 191.717 241.103C191.206 257.085 190.708 267.811 190.216 276.31C189.785 333.68 205.499 332.45 215.369 352.432C221.316 358.911 228.667 364.925 223.761 374.99L235.003 384.878" stroke="black" stroke-width="10" stroke-linecap="round"/>
<path d="M202.044 62.2559C207.419 74.0071 212.645 85.7578 221.67 97.5186C231.693 105.017 235.927 121.149 238.461 139.816" fill="white"/>
<path d="M202.044 62.2559C207.419 74.0071 212.645 85.7578 221.67 97.5186C231.693 105.017 235.927 121.149 238.461 139.816" stroke="black" stroke-width="10" stroke-linecap="round"/>
<path d="M101.982 85.9375C120.94 86.7458 139.932 87.5193 144.191 102.949C168.208 120.72 192.297 138.543 218.695 158.074" fill="white"/>
<path d="M101.982 85.9375C120.94 86.7458 139.932 87.5193 144.191 102.949C168.208 120.72 192.297 138.543 218.695 158.074" stroke="black" stroke-width="10" stroke-linecap="round"/>
<path d="M66.4355 214.014L121.346 221.2C142.001 230.111 163.638 236.104 191.765 222.793" fill="white"/>
<path d="M66.4355 214.014L121.346 221.2C142.001 230.111 163.638 236.104 191.765 222.793" stroke="black" stroke-width="10" stroke-linecap="round"/>
<path d="M174.436 386.128L188.554 373.489C184.644 337.35 191.814 331.93 202.734 336.906" fill="white"/>
<path d="M174.436 386.128L188.554 373.489C184.644 337.35 191.814 331.93 202.734 336.906" stroke="black" stroke-width="10" stroke-linecap="round"/>
<path d="M191.702 246.736L221.287 243.997C234.409 253.048 247.54 258.433 260.672 263.818" fill="white"/>
<path d="M191.702 246.736L221.287 243.997C234.409 253.048 247.54 258.433 260.672 263.818" stroke="black" stroke-width="10" stroke-linecap="round"/>
</svg>
