<svg width="461" height="402" viewBox="0 0 461 402" fill="none" xmlns="http://www.w3.org/2000/svg">
<path d="M224.383 22.4352C281.867 27.6884 333.705 41.3658 368.618 72.8129C418.46 98.5732 450.259 125.575 447.629 154.945C463.582 199.712 451.166 232.233 441.821 266.081L415.267 321.645C398.471 353.984 363.761 375.511 309.467 385.218C245.55 395.813 181.628 408.521 117.834 372.157C45.2036 345.065 41.7474 306.629 34.7708 268.771C13.3352 229.935 -1.01687 183.173 7.48465 110.835C15.0173 77.7685 24.5906 35.7319 71.4642 16.5185C118.338 -2.69486 160.367 7.27353 224.383 22.4352Z" fill="white" stroke="black" stroke-width="10" stroke-linejoin="round"/>
<path d="M53.3365 81.4947C-0.0294113 157.232 36.5348 190.598 58.5794 230.805C52.5805 298.968 54.3738 351.372 100.534 345C168.589 393.492 218.221 367.464 272.328 359.534C280.088 347.221 280.58 331.25 301.994 325.809C301.994 325.809 349.65 223.586 355.824 207.639C361.998 191.693 366.978 162.128 334.9 130.119C334.9 130.119 285.27 78.2559 253.384 63.7086C238.216 56.7887 220.356 58.8753 204.11 55.1289C170.806 47.4481 105.593 26.7019 105.593 26.7019C74.3458 19.7955 54.9123 35.9797 53.3365 81.4947Z" fill="white" stroke="black" stroke-width="10"/>
<path d="M272.515 287.703C274.551 286.353 238.639 263.474 213.449 253.745C200.568 248.771 192.866 233.294 189.594 219.88C182.859 192.271 209.597 157.245 201.083 135.403C192.568 113.561 174.67 112.578 158.907 105.715C148.354 101.12 142.09 104.952 125.123 98.584" fill="white"/>
<path d="M272.515 287.703C274.551 286.353 238.639 263.474 213.449 253.745C200.568 248.771 192.866 233.294 189.594 219.88C182.859 192.271 209.597 157.245 201.083 135.403C192.568 113.561 174.67 112.578 158.907 105.715C148.354 101.12 142.09 104.952 125.123 98.584" stroke="black" stroke-width="10" stroke-linecap="round"/>
<path d="M251.853 110.184C229.403 116.793 200.891 122.376 199.682 132.582Z" fill="white"/>
<path d="M251.853 110.184C229.403 116.793 200.891 122.376 199.682 132.582" stroke="black" stroke-width="10" stroke-linecap="round" stroke-linejoin="round"/>
<path d="M127.601 228.168C136.678 223.643 148.362 218.177 162.826 222.627C177.291 227.077 184.842 228.464 189.605 215.655" fill="white"/>
<path d="M127.601 228.168C136.678 223.643 148.362 218.177 162.826 222.627C177.291 227.077 184.842 228.464 189.605 215.655" stroke="black" stroke-width="10" stroke-linecap="round"/>
<path d="M250.157 220.038C229.014 219.171 205.899 231.859 188.219 207.2Z" fill="white"/>
<path d="M250.157 220.038C229.014 219.171 205.899 231.859 188.219 207.2" stroke="black" stroke-width="10" stroke-linecap="round"/>
</svg>
