<svg width="368" height="328" viewBox="0 0 368 328" fill="none" xmlns="http://www.w3.org/2000/svg">
<path d="M354.598 155.223C353.947 161.23 318.866 223.088 310.021 251.029C298.062 281.195 279.019 308.466 228.312 322.795C186.908 317.711 144.916 316.624 110.063 267.07L24.3774 137.122L8.75196 95.783C-2.53059 65.9341 21.9035 38.4875 44.7782 26.7229L106.804 10.1812C143.031 7.85993 167.076 -2.75814 237.861 18.4588L304.278 32.9401C328.44 43.5949 360.705 39.4245 361.332 93.1358C360.063 113.666 368.104 132.62 354.598 155.223Z" fill="white" stroke="black" stroke-width="10" stroke-linecap="round"/>
<path d="M293.381 234.312L308.567 107.547C300.33 107.569 317.834 81.9563 286.918 70.5348C174.02 26.5692 108.774 58.7965 90.3603 68.4632C71.9464 78.1298 55.9603 104.565 59.493 132.337C63.0257 160.11 70.7569 166.779 75.9986 180.57" fill="white"/>
<path d="M293.381 234.312L308.567 107.547C300.33 107.569 317.834 81.9563 286.918 70.5348C174.02 26.5692 108.774 58.7965 90.3603 68.4632C71.9464 78.1298 55.9603 104.565 59.493 132.337C63.0257 160.11 70.7569 166.779 75.9986 180.57" stroke="black" stroke-width="10" stroke-linecap="round"/>
</svg>
