<svg width="309" height="290" viewBox="0 0 309 290" fill="none" xmlns="http://www.w3.org/2000/svg">
<path d="M271.085 91.8513C137.701 4.28993 165.028 29.8478 107.94 10.3816C88.0408 3.26971 71.5227 2.20626 63.1259 15.6713L32.1727 46.787C11.1376 73.2227 12.5375 78.8349 9.86743 88.2248C-0.0415931 169.968 11.4099 168.942 13.618 203.733C28.8709 233.345 47.2915 259.773 78.4558 273.391C97.6882 286.958 124.322 285.626 152.614 280.955L199.136 269.626C217.377 272.369 233.092 260.204 249.084 249.668C282.833 225.978 291.556 192.352 303.159 159.871C305.494 138.862 299.517 120.251 285.771 103.882L271.085 91.8513Z" fill="white" stroke="black" stroke-width="10" stroke-linecap="round"/>
<path d="M233.542 240.226C251.445 212.385 280.105 189.888 245.338 135.884C213.446 110.999 188.488 103.317 160.731 88.6918C136.838 76.6633 113.127 64.9965 96.0177 66.4474C24.7683 59.6074 54.102 76.629 34.8516 82.1248" fill="white"/>
<path d="M233.542 240.226C251.445 212.385 280.105 189.888 245.338 135.884C213.446 110.999 188.488 103.317 160.731 88.6918C136.838 76.6633 113.127 64.9965 96.0177 66.4474C24.7683 59.6074 54.102 76.629 34.8516 82.1248" stroke="black" stroke-width="10" stroke-linecap="round"/>
<path d="M84.0752 114.755C77.9762 146.659 72.2936 179.39 54.959 188.969Z" fill="white"/>
<path d="M84.0752 114.755C77.9762 146.659 72.2936 179.39 54.959 188.969" stroke="black" stroke-width="10" stroke-linecap="round"/>
<path d="M124.94 247.407C122.417 220.237 162.03 208.742 194.63 194.638Z" fill="white"/>
<path d="M124.94 247.407C122.417 220.237 162.03 208.742 194.63 194.638" stroke="black" stroke-width="10" stroke-linecap="round"/>
</svg>
