<svg width="299" height="329" viewBox="0 0 299 329" fill="none" xmlns="http://www.w3.org/2000/svg">
<path d="M206.255 286.585C260.301 268.554 285.61 235.567 291.354 192.396C298.031 150.186 290.658 109.016 265.169 69.1883C242.88 7.16266 220.763 10.5973 198.625 6.43129C178.878 8.92167 160.93 7.78931 143.451 5.71367C90.617 3.37264 70.9358 27.3325 58.2034 43.0059C13.6206 102.705 18.5428 137.489 7.70025 180.208C2.1228 227.376 4.58306 267.707 28.6766 289.636C101.983 344.464 114.444 317.598 145.123 315.193C202.253 291.131 187.559 295.456 206.255 286.585Z" fill="white" stroke="black" stroke-width="10" stroke-linecap="round"/>
<path d="M239.716 225.29C237.147 166.902 232.239 111.509 204.865 84.8634C177.778 56.4869 142.927 35.9156 95.2339 28.2537" fill="white"/>
<path d="M239.716 225.29C237.147 166.902 232.239 111.509 204.865 84.8634C177.778 56.4869 142.927 35.9156 95.2339 28.2537" stroke="black" stroke-width="10" stroke-linecap="round"/>
<path d="M72.9556 80.0364C40.6299 205.787 26.6157 235.465 111.09 157.523Z" fill="white"/>
<path d="M72.9556 80.0364C40.6299 205.787 26.6157 235.465 111.09 157.523" stroke="black" stroke-width="10" stroke-linecap="round"/>
<path d="M148.273 201.391C77.1022 287.523 124.31 274.785 200.954 237.46Z" fill="white"/>
<path d="M148.273 201.391C77.1022 287.523 124.31 274.785 200.954 237.46" stroke="black" stroke-width="10" stroke-linecap="round"/>
</svg>
