<svg width="369" height="296" viewBox="0 0 369 296" fill="none" xmlns="http://www.w3.org/2000/svg">
<path d="M275.786 18.4424C357.38 46.8572 362.744 86.0631 363.137 125.973C367.288 301.515 218.274 298.543 189.415 285.049C144.012 290.671 112.478 285.448 87.664 274.97C41.3305 271.416 19.0131 243.719 11.6081 201.031C4.82565 178.117 2.51337 152.953 13.9844 120.852C22.3701 102.923 16.6678 85.7351 68.1501 65.5378C122.436 59.5543 139.621 45.7853 162.025 30.8092C194.253 -4.16363 234.342 3.46617 275.786 18.4424Z" fill="white" stroke="black" stroke-width="10" stroke-linecap="round"/>
<path d="M198.2 18.6455C197.834 27.2672 191.57 35.9043 212.923 44.4691C249.902 74.4535 247.398 96.649 238.977 117.677C221.856 150.206 227.961 165.608 245.156 172.833C298.484 224.559 286.337 235.172 300.563 262.344" fill="white"/>
<path d="M198.2 18.6455C197.834 27.2672 191.57 35.9043 212.923 44.4691C249.902 74.4535 247.398 96.649 238.977 117.677C221.856 150.206 227.961 165.608 245.156 172.833C298.484 224.559 286.337 235.172 300.563 262.344" stroke="black" stroke-width="10" stroke-linecap="round"/>
<path d="M264.286 235.714C214.447 228.648 174.323 208.942 163.203 151.496C157.324 118.234 176.58 99.2485 202.682 84.1511" fill="white"/>
<path d="M264.286 235.714C214.447 228.648 174.323 208.942 163.203 151.496C157.324 118.234 176.58 99.2485 202.682 84.1511" stroke="black" stroke-width="10" stroke-linecap="round"/>
<path d="M83.76 100.842C148.892 107.374 169.844 124.089 161.461 144.604C161.636 198.727 144.471 185.884 132.304 203.301" fill="white"/>
<path d="M83.76 100.842C148.892 107.374 169.844 124.089 161.461 144.604C161.636 198.727 144.471 185.884 132.304 203.301" stroke="black" stroke-width="10" stroke-linecap="round"/>
<path d="M191.881 239.352C182.639 227.308 185.733 215.23 190.062 203.15Z" fill="white"/>
<path d="M191.881 239.352C182.639 227.308 185.733 215.23 190.062 203.15" stroke="black" stroke-width="10" stroke-linecap="round"/>
<path d="M138.03 85.1826C160.767 106.091 163.063 116.845 163.138 126.496Z" fill="white"/>
<path d="M138.03 85.1826C160.767 106.091 163.063 116.845 163.138 126.496" stroke="black" stroke-width="10" stroke-linecap="round"/>
<path d="M63.0162 80.2065C47.0497 115.828 62.942 145.008 59.805 170.732C56.8309 206.592 67.4687 237.117 105.72 256.819C129.241 270.065 157.783 272.767 183.353 274.72" fill="white"/>
<path d="M63.0162 80.2065C47.0497 115.828 62.942 145.008 59.805 170.732C56.8309 206.592 67.4687 237.117 105.72 256.819C129.241 270.065 157.783 272.767 183.353 274.72" stroke="black" stroke-width="10" stroke-linecap="round"/>
</svg>
