<svg width="354" height="288" viewBox="0 0 354 288" fill="none" xmlns="http://www.w3.org/2000/svg">
<path d="M224.792 5.67017C322.55 19.6163 368.915 70.0419 339.319 174.385C308.147 212.678 279.808 253.789 226.894 270.454C208.145 270.066 191.682 271.95 180.437 279.027C164.205 283.467 145.606 283.437 125.512 280.579C87.669 260.481 36.7851 277.202 15.4686 210.444C-2.12822 157.03 0.875496 109.995 43.2835 75.1597C127.098 5.06633 173.167 10.9616 224.792 5.67017Z" fill="white" stroke="black" stroke-width="10" stroke-linecap="round"/>
<path d="M200.867 12.7749C213.257 27.1481 224.777 40.6721 220.153 56.1559C225.548 74.0758 225.533 79.3413 226.411 85.9478C234.072 100.18 234.645 103.841 234.917 107.052C234.661 131.742 230.511 137.223 226.562 143.694C215.404 176.37 225.62 183.261 232.329 194.383C239.126 205.4 248.623 199.949 252.143 230.951" fill="white"/>
<path d="M200.867 12.7749C213.257 27.1481 224.777 40.6721 220.153 56.1559C225.548 74.0758 225.533 79.3413 226.411 85.9478C234.072 100.18 234.645 103.841 234.917 107.052C234.661 131.742 230.511 137.223 226.562 143.694C215.404 176.37 225.62 183.261 232.329 194.383C239.126 205.4 248.623 199.949 252.143 230.951" stroke="black" stroke-width="10" stroke-linecap="round"/>
<path d="M128.214 236.91C175.692 220.468 178.708 195.255 170.287 167.785C175.29 123.583 157.293 97.8804 144.673 67.8521" fill="white"/>
<path d="M128.214 236.91C175.692 220.468 178.708 195.255 170.287 167.785C175.29 123.583 157.293 97.8804 144.673 67.8521" stroke="black" stroke-width="10" stroke-linecap="round"/>
<path d="M101.063 87.6846C120.787 90.0751 140.507 90.6957 160.251 100.206Z" fill="white"/>
<path d="M101.063 87.6846C120.787 90.0751 140.507 90.6957 160.251 100.206" stroke="black" stroke-width="10" stroke-linecap="round"/>
<path d="M192.538 59.2759C171.013 77.7537 164.346 92.476 157.452 107.255Z" fill="white"/>
<path d="M192.538 59.2759C171.013 77.7537 164.346 92.476 157.452 107.255" stroke="black" stroke-width="10" stroke-linecap="round"/>
<path d="M223.978 232.434C214.901 223.176 198.212 209.378 170.342 188.912Z" fill="white"/>
<path d="M223.978 232.434C214.901 223.176 198.212 209.378 170.342 188.912" stroke="black" stroke-width="10" stroke-linecap="round"/>
<path d="M148.917 269.505C111.598 244.117 61.7581 265.377 45.2564 188.742C42.3393 164.306 25.6145 135.466 63.9351 79.2095" fill="white"/>
<path d="M148.917 269.505C111.598 244.117 61.7581 265.377 45.2564 188.742C42.3393 164.306 25.6145 135.466 63.9351 79.2095" stroke="black" stroke-width="10" stroke-linecap="round"/>
</svg>
