<svg width="446" height="463" viewBox="0 0 446 463" fill="none" xmlns="http://www.w3.org/2000/svg">
<path d="M374.753 52.336C275.729 -33.611 202.724 16.0312 129.716 65.6536C110.001 90.1184 90.7143 114.582 63.7112 139.066C-18.9775 218.533 -3.42418 272.464 44.4612 317.99C74.3066 351.102 102.89 383.586 117.94 409.348C135.189 427.108 151.048 440.733 164.518 447.254C228.261 475.877 252.599 435.957 288.38 415.944C416.938 348.185 462.976 253.799 429.896 133.882C426.252 87.65 404.508 64.8154 374.753 52.336Z" fill="white" stroke="black" stroke-width="10"/>
<path d="M359.533 156.602C380.332 60.1805 330.141 70.8514 302.907 46.8902C255.594 35.5141 215.962 7.81241 136.755 64.2266C77.7634 146.314 95.4003 192.398 87.946 250.271C84.3039 305.527 100.894 339.109 123.426 352.995C129.034 382.801 127.71 411.325 177.168 437.362C219.259 474.891 248.84 442.61 279.937 418.783C326.762 406.196 334.284 375.432 333.233 332.727C428.524 291.286 375.24 213.026 359.533 156.602Z" fill="white" stroke="black" stroke-width="10"/>
<path d="M174.79 66.9443C184.479 78.3183 197.41 79.8782 200.26 111.948C195.881 144.824 213.937 177.64 231.504 210.458C249.67 228.136 243.773 276.056 248.667 310.414C230.871 327.375 213.031 327.566 195.187 326.047L161.462 355.713" fill="white"/>
<path d="M174.79 66.9443C184.479 78.3183 197.41 79.8782 200.26 111.948C195.881 144.824 213.937 177.64 231.504 210.458C249.67 228.136 243.773 276.056 248.667 310.414C230.871 327.375 213.031 327.566 195.187 326.047L161.462 355.713" stroke="black" stroke-width="10" stroke-linecap="round"/>
<path d="M341.256 169.325C329.182 182.411 320.166 197.525 286.397 196.229C267.141 193.765 247.889 192.523 228.673 204.831" fill="white"/>
<path d="M341.256 169.325C329.182 182.411 320.166 197.525 286.397 196.229C267.141 193.765 247.889 192.523 228.673 204.831" stroke="black" stroke-width="10" stroke-linecap="round"/>
<path d="M128.61 181.15C165.511 187.494 220.053 184.96 230.081 204.828Z" fill="white"/>
<path d="M128.61 181.15C165.511 187.494 220.053 184.96 230.081 204.828" stroke="black" stroke-width="10" stroke-linecap="round"/>
<path d="M320.539 325.718C282.962 342.724 267.043 324.874 247.266 313.234Z" fill="white"/>
<path d="M320.539 325.718C282.962 342.724 267.043 324.874 247.266 313.234" stroke="black" stroke-width="10" stroke-linecap="round"/>
<path d="M289.689 377.912L272.651 325.844Z" fill="white"/>
<path d="M289.689 377.912L272.651 325.844" stroke="black" stroke-width="10" stroke-linecap="round"/>
</svg>
