<svg width="454" height="438" viewBox="0 0 454 438" fill="none" xmlns="http://www.w3.org/2000/svg">
<path d="M434.067 227.449C454.226 199.824 451.589 159.614 437.993 113.353C386.114 -5.47723 292.911 -31.0879 147.714 60.592C102.17 78.9764 66.0642 114.328 42.3125 149.601C18.9482 184.299 -2.74427 201.001 8.80472 262.365C35.47 365.732 81.5291 446.817 212.064 430.847C263.929 424.538 309.73 438.12 375.329 386.758C400.722 344.727 449.654 347.527 434.067 227.449Z" fill="white" stroke="black" stroke-width="10" stroke-linecap="round"/>
<path d="M374.51 74.0826C319.883 -43.9993 230.499 49.8794 143.665 128.208C125.896 149.563 103.334 162.979 95.9697 201.573C69.2045 269.623 135.577 308.378 166.794 354.909C198.011 401.441 230.243 424.645 286.648 406.708C418.553 358.088 423.593 294.333 403.081 227.53C444.736 128.655 416.521 123.452 405.551 95.1282C395.208 89.4195 384.872 86.7239 374.51 74.0826Z" fill="white" stroke="black" stroke-width="10"/>
<path d="M164.796 129.562C178.061 136.771 187.626 136.629 197.208 136.519C222.798 132.721 233.551 146.323 236.729 168.81C237.069 182.949 233.293 198.472 255.135 205.382C273.956 222.546 264.567 230.388 262.27 240.574C262.781 256.556 263.279 267.283 263.77 275.782C264.202 333.151 248.487 331.922 238.617 351.904C232.671 358.383 225.319 364.397 230.226 374.462L218.984 384.35" fill="white"/>
<path d="M164.796 129.562C178.061 136.771 187.626 136.629 197.208 136.519C222.798 132.721 233.551 146.323 236.729 168.81C237.069 182.949 233.293 198.472 255.135 205.382C273.956 222.546 264.567 230.388 262.27 240.574C262.781 256.556 263.279 267.283 263.77 275.782C264.202 333.151 248.487 331.922 238.617 351.904C232.671 358.383 225.319 364.397 230.226 374.462L218.984 384.35" stroke="black" stroke-width="10" stroke-linecap="round"/>
<path d="M251.942 61.7275C246.567 73.4787 241.342 85.2296 232.316 96.9904C222.294 104.489 218.06 120.621 215.525 139.288" fill="white"/>
<path d="M251.942 61.7275C246.567 73.4787 241.342 85.2296 232.316 96.9904C222.294 104.489 218.06 120.621 215.525 139.288" stroke="black" stroke-width="10" stroke-linecap="round"/>
<path d="M352.005 85.4092C333.047 86.2175 314.054 86.991 309.795 102.421C285.778 120.191 261.689 138.015 235.292 157.546" fill="white"/>
<path d="M352.005 85.4092C333.047 86.2175 314.054 86.991 309.795 102.421C285.778 120.191 261.689 138.015 235.292 157.546" stroke="black" stroke-width="10" stroke-linecap="round"/>
<path d="M387.551 213.486L332.64 220.672C311.985 229.584 290.349 235.576 262.222 222.265" fill="white"/>
<path d="M387.551 213.486L332.64 220.672C311.985 229.584 290.349 235.576 262.222 222.265" stroke="black" stroke-width="10" stroke-linecap="round"/>
<path d="M279.551 385.6L265.433 372.961C269.342 336.822 262.172 331.402 251.253 336.378" fill="white"/>
<path d="M279.551 385.6L265.433 372.961C269.342 336.822 262.172 331.402 251.253 336.378" stroke="black" stroke-width="10" stroke-linecap="round"/>
<path d="M262.284 246.208L232.7 243.469C219.578 252.52 206.446 257.905 193.315 263.29" fill="white"/>
<path d="M262.284 246.208L232.7 243.469C219.578 252.52 206.446 257.905 193.315 263.29" stroke="black" stroke-width="10" stroke-linecap="round"/>
</svg>
