<svg width="461" height="401" viewBox="0 0 461 401" fill="none" xmlns="http://www.w3.org/2000/svg">
<path d="M236.603 21.9075C179.119 27.1606 127.281 40.8382 92.3684 72.2853C42.5267 98.0456 10.7273 125.047 13.3577 154.417C-2.59582 199.185 9.82094 231.705 19.165 265.553L45.7192 321.117C62.5154 353.456 97.2257 374.983 151.52 384.69C215.437 395.285 279.359 407.993 343.153 371.63C415.783 344.537 419.239 306.101 426.216 268.243C447.651 229.407 462.003 182.645 453.502 110.307C445.969 77.2406 436.396 35.204 389.522 15.9906C342.649 -3.22273 300.62 6.74578 236.603 21.9075Z" fill="white" stroke="black" stroke-width="10" stroke-linejoin="round"/>
<path d="M407.65 80.9665C461.016 156.704 424.452 190.07 402.407 230.277C408.406 298.439 406.613 350.844 360.453 344.471C292.397 392.964 242.765 366.936 188.659 359.006C180.899 346.693 180.407 330.722 158.993 325.28C158.993 325.28 111.337 223.057 105.163 207.111C98.9885 191.164 94.0084 161.6 126.086 129.591C126.086 129.591 175.716 77.7275 207.603 63.1802C222.771 56.2604 240.631 58.347 256.876 54.6005C290.181 46.9198 355.394 26.1735 355.394 26.1735C386.641 19.2672 406.075 35.4515 407.65 80.9665Z" fill="white" stroke="black" stroke-width="10"/>
<path d="M188.471 287.175C186.435 285.825 222.347 262.946 247.537 253.218C260.418 248.243 268.12 232.767 271.392 219.352C278.127 191.743 251.389 156.717 259.903 134.875C268.418 113.033 286.317 112.05 302.079 105.187C312.632 100.592 318.897 104.424 335.864 98.0562" fill="white"/>
<path d="M188.471 287.175C186.435 285.825 222.347 262.946 247.537 253.218C260.418 248.243 268.12 232.767 271.392 219.352C278.127 191.743 251.389 156.717 259.903 134.875C268.418 113.033 286.317 112.05 302.079 105.187C312.632 100.592 318.897 104.424 335.864 98.0562" stroke="black" stroke-width="10" stroke-linecap="round"/>
<path d="M209.133 109.655C231.583 116.265 260.096 121.847 261.305 132.054Z" fill="white"/>
<path d="M209.133 109.655C231.583 116.265 260.096 121.847 261.305 132.054" stroke="black" stroke-width="10" stroke-linecap="round" stroke-linejoin="round"/>
<path d="M333.386 227.641C324.309 223.115 312.624 217.649 298.16 222.099C283.696 226.549 276.145 227.937 271.381 215.127" fill="white"/>
<path d="M333.386 227.641C324.309 223.115 312.624 217.649 298.16 222.099C283.696 226.549 276.145 227.937 271.381 215.127" stroke="black" stroke-width="10" stroke-linecap="round"/>
<path d="M210.829 219.511C231.972 218.644 255.088 231.332 272.768 206.672Z" fill="white"/>
<path d="M210.829 219.511C231.972 218.644 255.088 231.332 272.768 206.672" stroke="black" stroke-width="10" stroke-linecap="round"/>
</svg>
