<svg width="248" height="244" viewBox="0 0 248 244" fill="none" xmlns="http://www.w3.org/2000/svg">
<path d="M183.364 41.2661C196.355 69.8071 205.56 101.394 229.263 121.319C239.898 131.974 249.052 145.609 237.232 201.471C224.963 224.744 203.956 238.361 170.949 238.713C144.327 233.709 121.41 226.574 79.5478 230.332C59.3921 225.461 41.0212 231.993 16.5359 199.462C8.44951 184.099 -4.1454 174.314 16.3372 123.6L79.0492 39.8149C96.0636 27.1431 97.9246 7.63145 137.579 5.1792C168.588 6.12366 174.403 24.8021 183.364 41.2661Z" fill="white" stroke="black" stroke-width="10"/>
<path d="M224.28 193.746C207.166 196.646 190.962 202.201 171.701 196.47L140.673 199.137C118.835 202.37 100.06 199.436 80.3264 198.433C50.4105 196.867 19.5905 195.73 27.6817 176.157" fill="white"/>
<path d="M224.28 193.746C207.166 196.646 190.962 202.201 171.701 196.47L140.673 199.137C118.835 202.37 100.06 199.436 80.3264 198.433C50.4105 196.867 19.5905 195.73 27.6817 176.157" stroke="black" stroke-width="10"/>
</svg>
