<svg width="240" height="282" viewBox="0 0 240 282" fill="none" xmlns="http://www.w3.org/2000/svg">
<path d="M142.894 65.356C164.967 97.4822 226.177 129.506 156.94 161.872Z" fill="white"/>
<path d="M142.894 65.356C164.967 97.4822 226.177 129.506 156.94 161.872" stroke="black" stroke-width="10"/>
<path d="M91.2581 99.1123L75.9349 173.291C65.9709 208.998 55.875 194.295 45.7627 173.369" fill="white"/>
<path d="M91.2581 99.1123L75.9349 173.291C65.9709 208.998 55.875 194.295 45.7627 173.369" stroke="black" stroke-width="10"/>
<path d="M221.505 127.219C219.929 153.404 222.369 182.155 189.768 188.51C162.046 198.065 127.267 207.639 116.567 217.15C70.6791 242.492 66.3993 229.224 47.6335 229.399" fill="white"/>
<path d="M221.505 127.219C219.929 153.404 222.369 182.155 189.768 188.51C162.046 198.065 127.267 207.639 116.567 217.15C70.6791 242.492 66.3993 229.224 47.6335 229.399" stroke="black" stroke-width="10"/>
<path d="M53.1826 44.039C69.5651 -1.71247 109.571 -2.23592 136.74 19.6825L175.661 68.7187L221.466 112.564C228.127 133.086 246.044 131.821 225.158 205.658C212.598 245.597 187.337 263.444 156.364 271.356C116.643 282.763 82.634 275.431 52.016 256.974C31.1443 235.47 -1.8936 225.323 6.97631 176.057C15.8293 153.901 16.2503 148.721 35.2417 106.155C41.2222 85.5415 47.2302 75.3804 53.1826 44.039Z" fill="white" stroke="black" stroke-width="10"/>
</svg>
