<svg width="273" height="295" viewBox="0 0 273 295" fill="none" xmlns="http://www.w3.org/2000/svg">
<path d="M161.581 10.165C103.896 2.05936 53.4069 1.79323 43.5708 45.8188L14.4863 132.102C-6.42319 197.866 15.5307 184.555 18.9884 205.367L62.2249 256.116C78.7477 272.842 96.5512 288.666 135.589 289.544C192.824 287.428 250.736 286.521 262.951 203.866L267.871 107.301C256.001 61.1592 243.01 15.6734 161.581 10.165Z" fill="white" stroke="black" stroke-width="10"/>
<path d="M232.474 87.5659C215.509 141.301 204.887 202.921 152.629 212.775C111.99 231.308 70.4371 261.155 36.2163 200.149" fill="white"/>
<path d="M232.474 87.5659C215.509 141.301 204.887 202.921 152.629 212.775C111.99 231.308 70.4371 261.155 36.2163 200.149" stroke="black" stroke-width="10"/>
<path d="M55.105 170.789C75.7646 183.072 97.2427 197.486 99.9121 162.913C103.659 126.878 88.0824 110.268 81.6033 84.5127" fill="white"/>
<path d="M55.105 170.789C75.7646 183.072 97.2427 197.486 99.9121 162.913C103.659 126.878 88.0824 110.268 81.6033 84.5127" stroke="black" stroke-width="10"/>
<path d="M196.265 86.7983C191.432 65.2975 175.607 48.9052 140.973 41.2534Z" fill="white"/>
<path d="M196.265 86.7983C191.432 65.2975 175.607 48.9052 140.973 41.2534" stroke="black" stroke-width="10"/>
<path d="M178.288 135.122C166.536 146.332 154.73 137.208 142.857 102.456C136.683 76.0322 125.737 68.9054 115.161 60.2866" fill="white"/>
<path d="M178.288 135.122C166.536 146.332 154.73 137.208 142.857 102.456C136.683 76.0322 125.737 68.9054 115.161 60.2866" stroke="black" stroke-width="10"/>
</svg>
