<svg width="312" height="314" viewBox="0 0 312 314" fill="none" xmlns="http://www.w3.org/2000/svg">
<path d="M268.057 72.083C301.617 118.36 309.671 151.557 306.268 178.88C296.229 226.419 291.034 277.437 241.058 296.292C161.303 322.865 144.136 300.812 111.732 290.596C74.6536 272.568 45.4964 249.986 24.4854 222.721C8.32726 211.556 9.53463 200.347 8.88021 189.141C11.376 168.324 6.89733 154.27 5.29647 137.426C2.85611 104.755 16.9588 81.9513 24.9095 55.478C48.4251 36.3305 65.6548 10.0367 104.096 7.85666L170.47 5.95871C211.356 3.81609 239.246 39.2843 268.057 72.083Z" fill="white" stroke="black" stroke-width="10"/>
<path d="M250.841 81.6104C238.982 98.2867 224.264 117.919 216.48 128.252C212.298 135.632 215.826 140.829 214.819 152.394C219.805 182.413 210.497 180.469 201.978 186.911C193.286 193.652 184.365 199.938 177.904 211.112C170.489 233.528 159.958 228.544 150.372 231.874L110.735 238.874C79.2886 248.341 74.3437 233.837 57.271 232.98" fill="white"/>
<path d="M250.841 81.6104C238.982 98.2867 224.264 117.919 216.48 128.252C212.298 135.632 215.826 140.829 214.819 152.394C219.805 182.413 210.497 180.469 201.978 186.911C193.286 193.652 184.365 199.938 177.904 211.112C170.489 233.528 159.958 228.544 150.372 231.874L110.735 238.874C79.2886 248.341 74.3437 233.837 57.271 232.98" stroke="black" stroke-width="10"/>
<path d="M66.6228 182.955C64.5561 194.402 71.983 207.179 55.5039 216.605Z" fill="white"/>
<path d="M66.6228 182.955C64.5561 194.402 71.983 207.179 55.5039 216.605" stroke="black" stroke-width="10"/>
<path d="M152.001 195.662L78.4954 107.923C63.0496 89.2577 51.2339 84.7405 50.0833 121.791" fill="white"/>
<path d="M152.001 195.662L78.4954 107.923C63.0496 89.2577 51.2339 84.7405 50.0833 121.791" stroke="black" stroke-width="10"/>
<path d="M163.865 117.183C156.664 95.0756 136.407 73.0022 101.622 50.9667C115.094 55.6672 128.531 60.4748 146.452 51.7113C167.695 41.2993 177.817 53.2754 190.44 60.217" fill="white"/>
<path d="M163.865 117.183C156.664 95.0756 136.407 73.0022 101.622 50.9667C115.094 55.6672 128.531 60.4748 146.452 51.7113C167.695 41.2993 177.817 53.2754 190.44 60.217" stroke="black" stroke-width="10"/>
</svg>
