<svg width="327" height="313" viewBox="0 0 327 313" fill="none" xmlns="http://www.w3.org/2000/svg">
<path d="M91.481 26.9822C6.85138 69.0452 8.08469 91.6628 5.52734 123.759C11.934 162.201 10.2235 176.502 10.0249 195.299C8.88108 234.816 33.4945 245.203 49.0029 265.887C98.7358 315.648 125.23 299.566 160.32 307.837C192.588 302.868 212.251 297.931 230.971 292.997C283.593 280.224 278.994 260.451 298.946 243.681C324.525 209.356 326.774 165.496 313.264 115.195C302.186 85.2711 279.704 62.8922 256.174 41.2061L198.339 12.0472C153.939 -6.31158 103.072 18.8906 91.481 26.9822Z" fill="white" stroke="black" stroke-width="10"/>
<path d="M170.784 24.188C189.215 27.8945 211.536 30.6384 219.184 71.4753C219.028 89.2356 224.728 103.069 231.37 116.271C239.392 158.855 218.437 187.045 199.736 216.354C185.216 240.859 167.246 243.31 149.822 249.244C130.818 259.288 116.561 252.554 106.669 230.391C100.618 217.742 99.3665 199.062 85.0291 196.827C78.5529 185.404 77.6955 175.837 78.0537 166.673C86.2069 151.365 79.598 130.198 77.0449 110.641C110.504 108.959 118.728 82.1737 122.579 51.0386C138.146 45.1427 153.086 43.079 170.784 24.188Z" fill="white" stroke="black" stroke-width="10"/>
<path d="M130.759 212.225C110.913 194.25 111.275 162.727 111.582 131.24C123.776 78.4407 145.895 53.2002 181.235 64.6781" fill="white"/>
<path d="M130.759 212.225C110.913 194.25 111.275 162.727 111.582 131.24C123.776 78.4407 145.895 53.2002 181.235 64.6781" stroke="black" stroke-width="10"/>
<path d="M92.7402 178.703C94.2985 151.617 102.547 139.48 113.31 132.959Z" fill="white"/>
<path d="M92.7402 178.703C94.2985 151.617 102.547 139.48 113.31 132.959" stroke="black" stroke-width="10"/>
<path d="M142.402 49.2627L139.879 73.4072Z" fill="white"/>
<path d="M142.402 49.2627L139.879 73.4072" stroke="black" stroke-width="10"/>
</svg>
