<svg width="458" height="481" viewBox="0 0 458 481" fill="none" xmlns="http://www.w3.org/2000/svg">
<path d="M173.629 13.614C153.496 7.35382 131.368 19.4975 109.026 33.6105L78.9436 68.1723C57.7488 88.3428 48.8623 108.481 50.6533 128.591C52.5795 163.644 43.2484 198.726 19.8943 233.845C4.95486 276.938 -4.79879 318.576 21.061 350.221C36.8535 378.951 56.0472 406.309 94.5351 425.891C134.778 442.491 170.258 465.077 218.792 471.256C250.517 473.71 276.28 484.156 327.385 460.627L397.091 413.892C408.827 405.3 420.006 400.49 438.296 347.405C444.281 298.081 467.253 250.836 439.628 197.401L395.396 95.7922C374.483 69.6756 360.599 40.9815 315.896 23.5861C289.842 15.1789 272.35 2.07169 222.748 6.58858L173.629 13.614Z" fill="white" stroke="black" stroke-width="10"/>
<path d="M103.066 62.0747C92.4339 84.2291 75.8788 106.399 75.6533 128.526C70.2822 173.182 55.8235 204.283 41.4505 235.512C33.0487 257.284 20.0177 273.428 31.3245 319.16C39.3493 347.843 46.8205 376.786 88.406 389.7L160.041 421.409C180.449 431.012 208.151 429.61 237.638 425.517C266.347 415.199 295.084 415.644 323.714 375.291C329.875 363.236 333.493 346.126 330.455 315.791" fill="white"/>
<path d="M103.066 62.0747C92.4339 84.2291 75.8788 106.399 75.6533 128.526C70.2822 173.182 55.8235 204.283 41.4505 235.512C33.0487 257.284 20.0177 273.428 31.3245 319.16C39.3493 347.843 46.8205 376.786 88.406 389.7L160.041 421.409C180.449 431.012 208.151 429.61 237.638 425.517C266.347 415.199 295.084 415.644 323.714 375.291C329.875 363.236 333.493 346.126 330.455 315.791" stroke="black" stroke-width="10"/>
<path d="M344.189 293.341C358.001 293.498 368.727 288.833 366.526 263.972C363.324 216.759 369.808 168.552 345.469 123.509C345.511 97.2854 347.141 69.9974 327.191 57.1774C300.784 37.9135 288.146 4.80836 232.254 15.1845C204.66 21.3059 186.317 21.6119 177.084 16.191" fill="white"/>
<path d="M344.189 293.341C358.001 293.498 368.727 288.833 366.526 263.972C363.324 216.759 369.808 168.552 345.469 123.509C345.511 97.2854 347.141 69.9974 327.191 57.1774C300.784 37.9135 288.146 4.80836 232.254 15.1845C204.66 21.3059 186.317 21.6119 177.084 16.191" stroke="black" stroke-width="10"/>
<path d="M178.941 67.0483C189.196 92.9424 195.494 117.336 220.534 148.836C210.348 182.547 195.778 194.635 181.028 205.837C177.352 215.354 171.4 210.699 174.276 261.027C170.668 309.313 139.2 325.928 121.081 357.718" fill="white"/>
<path d="M178.941 67.0483C189.196 92.9424 195.494 117.336 220.534 148.836C210.348 182.547 195.778 194.635 181.028 205.837C177.352 215.354 171.4 210.699 174.276 261.027C170.668 309.313 139.2 325.928 121.081 357.718" stroke="black" stroke-width="10"/>
<path d="M284.677 282.289C248.424 264.627 212.156 241.226 175.971 249.815Z" fill="white"/>
<path d="M284.677 282.289C248.424 264.627 212.156 241.226 175.971 249.815" stroke="black" stroke-width="10"/>
<path d="M85.2759 181.949C111.893 223.004 144.234 220.251 175.055 229.128Z" fill="white"/>
<path d="M85.2759 181.949C111.893 223.004 144.234 220.251 175.055 229.128" stroke="black" stroke-width="10"/>
<path d="M138.577 125.775C159.978 149.893 181.201 174.064 180.164 204.977Z" fill="white"/>
<path d="M138.577 125.775C159.978 149.893 181.201 174.064 180.164 204.977" stroke="black" stroke-width="10"/>
<path d="M326.46 107.18C301.862 136.264 268.183 152.704 220.537 149.698Z" fill="white"/>
<path d="M326.46 107.18C301.862 136.264 268.183 152.704 220.537 149.698" stroke="black" stroke-width="10"/>
</svg>
