<svg width="410" height="467" viewBox="0 0 410 467" fill="none" xmlns="http://www.w3.org/2000/svg">
<path d="M258.398 19.9015C290.539 34.8416 323.347 44.3344 353.375 76.5495C378.239 96.1306 396.739 131.386 401.115 201.425C403.202 250.672 415.138 298.662 382.545 352.336C354.562 375.926 371.704 383.955 295.664 424.116C256.491 440.526 228.37 476.71 168.159 455.484C139.032 447.235 129.195 450.491 79.2986 429.854C58.1584 425.038 40.6471 412.917 30.9055 385.153C20.4136 367.19 11.6463 342.25 5.69775 305.909C7.7404 274.513 12.4725 261.596 16.7468 245.535C23.5818 203.321 21.0181 185.735 16.5571 173.121C16.0951 151.858 20.3329 130.583 33.6316 109.283C40.6162 86.2651 45.2144 64.4978 86.0347 39.3183C123.204 11.3764 147.327 -9.63763 258.398 19.9015Z" fill="white" stroke="black" stroke-width="10"/>
<path d="M187.91 426.122C173.382 419.19 173.221 407.086 129.248 410.758C118.613 409.381 107.98 409.177 97.3093 394.462L73.9951 379.868L54.1225 362.678C38.6166 345.823 35.0206 327.612 40.1872 308.404C42.9113 287.095 47.2666 261.402 43.5024 257.533C41.4552 244.322 45.5329 222.899 50.25 200.619C48.0856 171.863 27.6874 175.869 54.2849 95.4358C56.0172 78.2892 65.0815 69.5202 81.8034 69.5015C95.4128 66.8222 99.07 60.5511 116.227 46.9976C128.421 39.7817 134.727 32.5811 161.86 25.3262C182.557 27.9481 203.229 21.0673 223.963 38.0947L260.256 70.7585C289.517 95.0125 292.651 108.46 294.871 121.53C303.003 141.049 299.827 160.598 296.749 180.146C296.06 196.807 290.325 210.601 273.572 218.138C281.619 227.724 290.648 232.327 294.382 263.773C302.971 318.381 289.765 332.378 280.826 354.326C263.363 379.703 245.884 398.815 228.411 419.981" fill="white"/>
<path d="M187.91 426.122C173.382 419.19 173.221 407.086 129.248 410.758C118.613 409.381 107.98 409.177 97.3093 394.462L73.9951 379.868L54.1225 362.678C38.6166 345.823 35.0206 327.612 40.1872 308.404C42.9113 287.095 47.2666 261.402 43.5024 257.533C41.4552 244.322 45.5329 222.899 50.25 200.619C48.0856 171.863 27.6874 175.869 54.2849 95.4358C56.0172 78.2892 65.0815 69.5202 81.8034 69.5015C95.4128 66.8222 99.07 60.5511 116.227 46.9976C128.421 39.7817 134.727 32.5811 161.86 25.3262C182.557 27.9481 203.229 21.0673 223.963 38.0947L260.256 70.7585C289.517 95.0125 292.651 108.46 294.871 121.53C303.003 141.049 299.827 160.598 296.749 180.146C296.06 196.807 290.325 210.601 273.572 218.138C281.619 227.724 290.648 232.327 294.382 263.773C302.971 318.381 289.765 332.378 280.826 354.326C263.363 379.703 245.884 398.815 228.411 419.981" stroke="black" stroke-width="10"/>
<path d="M139.596 82.2812C155.315 92.9986 167.64 109.693 174.22 136.501C171.393 157.467 166.537 174.404 161.432 190.845C157.133 213.521 145.281 212.247 151.288 267.596C162.058 278.045 164.721 285.816 161.696 291.707C142.223 333.197 149.012 369.841 180.088 402.004" fill="white"/>
<path d="M139.596 82.2812C155.315 92.9986 167.64 109.693 174.22 136.501C171.393 157.467 166.537 174.404 161.432 190.845C157.133 213.521 145.281 212.247 151.288 267.596C162.058 278.045 164.721 285.816 161.696 291.707C142.223 333.197 149.012 369.841 180.088 402.004" stroke="black" stroke-width="10"/>
<path d="M110.13 352.187C119.701 331.4 130.603 311.274 158.268 299.475C162.085 287.707 175.072 283.032 199.615 287.297" fill="white"/>
<path d="M110.13 352.187C119.701 331.4 130.603 311.274 158.268 299.475C162.085 287.707 175.072 283.032 199.615 287.297" stroke="black" stroke-width="10"/>
<path d="M239.079 213.918C199.936 210.661 165.551 210.162 153.757 222.762Z" fill="white"/>
<path d="M239.079 213.918C199.936 210.661 165.551 210.162 153.757 222.762" stroke="black" stroke-width="10"/>
<path d="M55.5193 237.675C86.1417 229.171 107.293 212.424 154.607 218.449Z" fill="white"/>
<path d="M55.5193 237.675C86.1417 229.171 107.293 212.424 154.607 218.449" stroke="black" stroke-width="10"/>
<path d="M66.627 199.714L108.927 222.017Z" fill="white"/>
<path d="M66.627 199.714L108.927 222.017" stroke="black" stroke-width="10"/>
<path d="M235.382 119.1C207.297 124.633 187.664 130.144 173.356 135.641Z" fill="white"/>
<path d="M235.382 119.1C207.297 124.633 187.664 130.144 173.356 135.641" stroke="black" stroke-width="10"/>
<path d="M198.18 68.335C187.035 90.2033 173.086 112.079 175.076 133.913Z" fill="white"/>
<path d="M198.18 68.335C187.035 90.2033 173.086 112.079 175.076 133.913" stroke="black" stroke-width="10"/>
</svg>
