<svg width="360" height="394" viewBox="0 0 360 394" fill="none" xmlns="http://www.w3.org/2000/svg">
<path d="M336.794 280.517C342.142 243.074 366.075 239.492 346.816 157.214C336.783 98.5112 308.008 50.0236 243.012 21.2788C203.668 15.6778 167.808 -12.3746 122.322 21.5947C109.065 33.1821 99.1875 39.3585 90.4845 44.0921C72.4039 62.9155 37.2598 64.0277 20.0343 135.656C20.0496 162.952 26.706 173.518 14.2526 232.223C10.305 254.845 -1.18161 269.03 11.8717 310.678C25.9393 329.94 24.6685 350.337 68.0551 367.428C79.962 378.425 174.569 388.804 205.178 387.759C235.786 386.713 234.263 397.166 280.949 353.077C299.465 329.703 316.281 320.22 336.794 280.517Z" fill="white" stroke="black" stroke-width="10"/>
<path d="M119.813 50.9113C154.805 -1.24861 193.858 21.9412 233.626 58.372C256.231 85.5225 263.217 114.134 260.573 143.647C259.6 161.371 251.891 173.353 234.8 177.335C246.079 183.64 250.587 195.391 250.405 210.915L235.122 300.61C220.552 337.571 208.98 337.376 196.456 348.987C189.772 352.37 183.004 355.668 174.062 356.805C161.695 352.634 149.332 350.079 136.883 314.661C147.409 311.286 103.689 294.47 135.881 261.215C146.25 249.875 111.192 213.12 131.365 182.778C141.689 149.393 151.521 120.546 159.617 107.704C137.822 104.159 144.327 84.3442 137.111 72.4179" fill="white"/>
<path d="M119.813 50.9113C154.805 -1.24861 193.858 21.9412 233.626 58.372C256.231 85.5225 263.217 114.134 260.573 143.647C259.6 161.371 251.891 173.353 234.8 177.335C246.079 183.64 250.587 195.391 250.405 210.915L235.122 300.61C220.552 337.571 208.98 337.376 196.456 348.987C189.772 352.37 183.004 355.668 174.062 356.805C161.695 352.634 149.332 350.079 136.883 314.661C147.409 311.286 103.689 294.47 135.881 261.215C146.25 249.875 111.192 213.12 131.365 182.778C141.689 149.393 151.521 120.546 159.617 107.704C137.822 104.159 144.327 84.3442 137.111 72.4179" stroke="black" stroke-width="10"/>
<path d="M185.461 100.74L159.617 107.704Z" fill="white"/>
<path d="M185.461 100.74L159.617 107.704" stroke="black" stroke-width="10"/>
<path d="M83.9333 176.006C97.6292 182.173 109.483 192.67 129.643 183.645Z" fill="white"/>
<path d="M83.9333 176.006C97.6292 182.173 109.483 192.67 129.643 183.645" stroke="black" stroke-width="10"/>
<path d="M167.843 286.132C151.737 283.655 139.684 275.474 135.008 256.907Z" fill="white"/>
<path d="M167.843 286.132C151.737 283.655 139.684 275.474 135.008 256.907" stroke="black" stroke-width="10"/>
<path d="M197.728 176.57C176.342 172.445 152.794 159.769 135.648 172.422Z" fill="white"/>
<path d="M197.728 176.57C176.342 172.445 152.794 159.769 135.648 172.422" stroke="black" stroke-width="10"/>
<path d="M130.068 345.713C116.447 345.29 103.573 346.444 87.8148 341.514C65.2938 316.356 57.216 316.322 42.8927 305.424C40.1981 304.609 11.814 275.05 32.3515 230.452C43.692 207.63 46.4437 199.746 41.7101 183.013C52.8445 143.995 46.8074 135.211 49.2814 111.441" fill="white"/>
<path d="M130.068 345.713C116.447 345.29 103.573 346.444 87.8148 341.514C65.2938 316.356 57.216 316.322 42.8927 305.424C40.1981 304.609 11.814 275.05 32.3515 230.452C43.692 207.63 46.4437 199.746 41.7101 183.013C52.8445 143.995 46.8074 135.211 49.2814 111.441" stroke="black" stroke-width="10"/>
</svg>
