<svg width="248" height="245" viewBox="0 0 248 245" fill="none" xmlns="http://www.w3.org/2000/svg">
<path d="M64.6228 41.7944C51.6316 70.3354 42.4268 101.921 18.7235 121.847C8.08901 132.502 -1.06558 146.137 10.755 201.999C23.024 225.272 44.0301 238.889 77.037 239.241C103.659 234.237 126.576 227.103 168.439 230.86C188.594 225.99 206.965 232.521 231.451 199.99C239.537 184.627 252.132 174.842 231.649 124.128L168.937 40.3433C151.923 27.6714 150.062 8.15928 110.407 5.70703C79.3985 6.65149 73.5838 25.3304 64.6228 41.7944Z" fill="white" stroke="black" stroke-width="10"/>
<path d="M23.7065 194.274C40.8203 197.174 57.0247 202.729 76.2858 196.998L107.313 199.665C129.151 202.898 147.926 199.964 167.66 198.961C197.576 197.395 228.396 196.258 220.305 176.685" fill="white"/>
<path d="M23.7065 194.274C40.8203 197.174 57.0247 202.729 76.2858 196.998L107.313 199.665C129.151 202.898 147.926 199.964 167.66 198.961C197.576 197.395 228.396 196.258 220.305 176.685" stroke="black" stroke-width="10"/>
</svg>
