<svg width="240" height="282" viewBox="0 0 240 282" fill="none" xmlns="http://www.w3.org/2000/svg">
<path d="M97.0926 64.8843C75.0195 97.0105 13.8099 129.034 83.0468 161.399Z" fill="white"/>
<path d="M97.0926 64.8843C75.0195 97.0105 13.8099 129.034 83.0468 161.399" stroke="black" stroke-width="10"/>
<path d="M148.729 98.6401L164.052 172.818C174.016 208.526 184.112 193.824 194.224 172.897" fill="white"/>
<path d="M148.729 98.6401L164.052 172.818C174.016 208.526 184.112 193.824 194.224 172.897" stroke="black" stroke-width="10"/>
<path d="M18.4819 126.748C20.0576 152.932 17.6173 181.683 50.2181 188.038C77.9408 197.593 112.72 207.167 123.419 216.678C169.307 242.02 173.587 228.753 192.353 228.927" fill="white"/>
<path d="M18.4819 126.748C20.0576 152.932 17.6173 181.683 50.2181 188.038C77.9408 197.593 112.72 207.167 123.419 216.678C169.307 242.02 173.587 228.753 192.353 228.927" stroke="black" stroke-width="10"/>
<path d="M186.804 43.5676C170.421 -2.18383 130.416 -2.70777 103.247 19.2107L64.325 68.2468L18.5203 112.093C11.8598 132.615 -6.05775 131.35 14.8285 205.187C27.3885 245.126 52.6496 262.972 83.6222 270.884C123.344 282.291 157.353 274.959 187.971 256.502C208.842 234.999 241.88 224.851 233.01 175.585C224.157 153.43 223.736 148.249 204.745 105.683C198.764 85.0696 192.756 74.9091 186.804 43.5676Z" fill="white" stroke="black" stroke-width="10"/>
</svg>
