<svg width="273" height="295" viewBox="0 0 273 295" fill="none" xmlns="http://www.w3.org/2000/svg">
<path d="M111.405 9.69283C169.09 1.58719 219.58 1.32106 229.416 45.3466L258.5 131.63C279.41 197.394 257.456 184.083 253.998 204.894L210.762 255.644C194.239 272.37 176.435 288.194 137.398 289.072C80.1627 286.956 22.2507 286.049 10.0356 203.394L5.11597 106.829C16.9851 60.687 29.9767 15.2012 111.405 9.69283Z" fill="white" stroke="black" stroke-width="10"/>
<path d="M40.5127 87.0938C57.4771 140.829 68.0993 202.449 120.358 212.303C160.997 230.836 202.55 260.683 236.77 199.677" fill="white"/>
<path d="M40.5127 87.0938C57.4771 140.829 68.0993 202.449 120.358 212.303C160.997 230.836 202.55 260.683 236.77 199.677" stroke="black" stroke-width="10"/>
<path d="M217.882 170.317C197.222 182.599 175.744 197.014 173.074 162.441C169.328 126.406 184.904 109.796 191.383 84.0405" fill="white"/>
<path d="M217.882 170.317C197.222 182.599 175.744 197.014 173.074 162.441C169.328 126.406 184.904 109.796 191.383 84.0405" stroke="black" stroke-width="10"/>
<path d="M76.7217 86.3267C81.5545 64.8258 97.3797 48.4335 132.014 40.7817Z" fill="white"/>
<path d="M76.7217 86.3267C81.5545 64.8258 97.3797 48.4335 132.014 40.7817" stroke="black" stroke-width="10"/>
<path d="M94.6987 134.649C106.451 145.86 118.257 136.736 130.129 101.984C136.304 75.5605 147.249 68.4333 157.826 59.8145" fill="white"/>
<path d="M94.6987 134.649C106.451 145.86 118.257 136.736 130.129 101.984C136.304 75.5605 147.249 68.4333 157.826 59.8145" stroke="black" stroke-width="10"/>
</svg>
