<svg width="312" height="314" viewBox="0 0 312 314" fill="none" xmlns="http://www.w3.org/2000/svg">
<path d="M43.9294 71.6106C10.3695 117.887 2.31566 151.085 5.71861 178.408C15.7578 225.947 20.953 276.965 70.9287 295.82C150.684 322.392 167.851 300.339 200.254 290.124C237.333 272.096 266.49 249.514 287.501 222.249C303.66 211.084 302.452 199.874 303.107 188.669C300.611 167.852 305.089 153.798 306.69 136.954C309.131 104.283 295.028 81.4791 287.077 55.0058C263.562 35.8583 246.332 9.56455 207.891 7.38449L141.517 5.48654C100.631 3.34392 72.7412 38.8119 43.9294 71.6106Z" fill="white" stroke="black" stroke-width="10"/>
<path d="M61.1458 81.1387C73.0042 97.815 87.7223 117.447 95.5065 127.781C99.689 135.16 96.1607 140.358 97.1675 151.923C92.1813 181.942 101.49 179.998 110.008 186.44C118.701 193.18 127.621 199.467 134.083 210.64C141.497 233.056 152.029 228.072 161.615 231.402L201.252 238.403C232.698 247.869 237.643 233.365 254.716 232.508" fill="white"/>
<path d="M61.1458 81.1387C73.0042 97.815 87.7223 117.447 95.5065 127.781C99.689 135.16 96.1607 140.358 97.1675 151.923C92.1813 181.942 101.49 179.998 110.008 186.44C118.701 193.18 127.621 199.467 134.083 210.64C141.497 233.056 152.029 228.072 161.615 231.402L201.252 238.403C232.698 247.869 237.643 233.365 254.716 232.508" stroke="black" stroke-width="10"/>
<path d="M245.364 182.483C247.43 193.93 240.003 206.707 256.483 216.133Z" fill="white"/>
<path d="M245.364 182.483C247.43 193.93 240.003 206.707 256.483 216.133" stroke="black" stroke-width="10"/>
<path d="M159.986 195.191L233.491 107.452C248.937 88.786 260.753 84.2688 261.903 121.319" fill="white"/>
<path d="M159.986 195.191L233.491 107.452C248.937 88.786 260.753 84.2688 261.903 121.319" stroke="black" stroke-width="10"/>
<path d="M148.122 116.711C155.322 94.6037 175.58 72.53 210.365 50.4945C196.892 55.195 183.456 60.0026 165.535 51.2392C144.292 40.8271 134.17 52.8032 121.547 59.7448" fill="white"/>
<path d="M148.122 116.711C155.322 94.6037 175.58 72.53 210.365 50.4945C196.892 55.195 183.456 60.0026 165.535 51.2392C144.292 40.8271 134.17 52.8032 121.547 59.7448" stroke="black" stroke-width="10"/>
</svg>
