<svg width="327" height="313" viewBox="0 0 327 313" fill="none" xmlns="http://www.w3.org/2000/svg">
<path d="M235.505 26.5098C320.135 68.5728 318.902 91.1904 321.459 123.287C315.053 161.729 316.763 176.03 316.962 194.827C318.105 234.344 293.492 244.731 277.984 265.415C228.251 315.175 201.756 299.093 166.667 307.365C134.398 302.396 114.736 297.459 96.0154 292.525C43.3932 279.752 47.992 259.979 28.0409 243.209C2.46157 208.884 0.212874 165.023 13.722 114.723C24.8005 84.799 47.283 62.4201 70.8125 40.734L128.648 11.575C173.048 -6.78371 223.914 18.4182 235.505 26.5098Z" fill="white" stroke="black" stroke-width="10"/>
<path d="M156.202 23.7158C137.772 27.4223 115.451 30.166 107.802 71.0029C107.959 88.7632 102.258 102.597 95.6161 115.799C87.5946 158.382 108.55 186.573 127.251 215.882C141.771 240.387 159.74 242.838 177.165 248.771C196.168 258.815 210.425 252.082 220.318 229.919C226.369 217.27 227.62 198.589 241.957 196.355C248.434 184.932 249.291 175.365 248.933 166.2C240.78 150.893 247.389 129.726 249.942 110.168C216.483 108.487 208.259 81.7013 204.408 50.5662C188.84 44.6703 173.901 42.6068 156.202 23.7158Z" fill="white" stroke="black" stroke-width="10"/>
<path d="M196.227 211.752C216.074 193.778 215.712 162.255 215.405 130.768C203.211 77.9686 181.092 52.7281 145.751 64.206" fill="white"/>
<path d="M196.227 211.752C216.074 193.778 215.712 162.255 215.405 130.768C203.211 77.9686 181.092 52.7281 145.751 64.206" stroke="black" stroke-width="10"/>
<path d="M234.246 178.231C232.688 151.145 224.439 139.008 213.676 132.487Z" fill="white"/>
<path d="M234.246 178.231C232.688 151.145 224.439 139.008 213.676 132.487" stroke="black" stroke-width="10"/>
<path d="M184.585 48.7905L187.108 72.9351Z" fill="white"/>
<path d="M184.585 48.7905L187.108 72.9351" stroke="black" stroke-width="10"/>
</svg>
