<svg width="458" height="481" viewBox="0 0 458 481" fill="none" xmlns="http://www.w3.org/2000/svg">
<path d="M284.358 13.1416C304.49 6.88141 326.619 19.0253 348.961 33.1384L379.043 67.6999C400.238 87.8704 409.124 108.009 407.333 128.119C405.407 163.172 414.738 198.254 438.092 233.373C453.032 276.466 462.785 318.104 436.926 349.749C421.133 378.478 401.939 405.837 363.451 425.419C323.208 442.019 287.729 464.605 239.194 470.784C207.47 473.238 181.707 483.684 130.601 460.154L60.8955 413.42C49.1596 404.828 37.9809 400.018 19.6901 346.933C13.7059 297.609 -9.26649 250.364 18.3586 196.929L62.5903 95.32C83.504 69.2035 97.3871 40.5093 142.09 23.114C168.145 14.7068 185.636 1.59952 235.238 6.11641L284.358 13.1416Z" fill="white" stroke="black" stroke-width="10"/>
<path d="M354.921 61.6025C365.553 83.7569 382.108 105.927 382.333 128.054C387.704 172.71 402.163 203.811 416.536 235.041C424.938 256.812 437.969 272.956 426.662 318.688C418.637 347.371 411.166 376.314 369.58 389.228L297.945 420.938C277.538 430.54 249.835 429.138 220.348 425.045C191.64 414.727 162.903 415.172 134.273 374.819C128.111 362.764 124.493 345.654 127.532 315.319" fill="white"/>
<path d="M354.921 61.6025C365.553 83.7569 382.108 105.927 382.333 128.054C387.704 172.71 402.163 203.811 416.536 235.041C424.938 256.812 437.969 272.956 426.662 318.688C418.637 347.371 411.166 376.314 369.58 389.228L297.945 420.938C277.538 430.54 249.835 429.138 220.348 425.045C191.64 414.727 162.903 415.172 134.273 374.819C128.111 362.764 124.493 345.654 127.532 315.319" stroke="black" stroke-width="10"/>
<path d="M113.798 292.868C99.9855 293.026 89.26 288.36 91.4607 263.499C94.6624 216.287 88.1789 168.08 112.518 123.037C112.476 96.813 110.846 69.5253 130.795 56.7052C157.203 37.4414 169.841 4.3362 225.733 14.7123C253.327 20.8337 271.67 21.1395 280.903 15.7186" fill="white"/>
<path d="M113.798 292.868C99.9855 293.026 89.26 288.36 91.4607 263.499C94.6624 216.287 88.1789 168.08 112.518 123.037C112.476 96.813 110.846 69.5253 130.795 56.7052C157.203 37.4414 169.841 4.3362 225.733 14.7123C253.327 20.8337 271.67 21.1395 280.903 15.7186" stroke="black" stroke-width="10"/>
<path d="M279.046 66.5762C268.79 92.4703 262.492 116.864 237.452 148.364C247.639 182.075 262.209 194.162 276.958 205.364C280.635 214.882 286.587 210.227 283.71 260.555C287.319 308.841 318.787 325.455 336.906 357.246" fill="white"/>
<path d="M279.046 66.5762C268.79 92.4703 262.492 116.864 237.452 148.364C247.639 182.075 262.209 194.162 276.958 205.364C280.635 214.882 286.587 210.227 283.71 260.555C287.319 308.841 318.787 325.455 336.906 357.246" stroke="black" stroke-width="10"/>
<path d="M173.31 281.818C209.563 264.156 245.831 240.754 282.016 249.344Z" fill="white"/>
<path d="M173.31 281.818C209.563 264.156 245.831 240.754 282.016 249.344" stroke="black" stroke-width="10"/>
<path d="M372.711 181.478C346.094 222.532 313.753 219.779 282.932 228.656Z" fill="white"/>
<path d="M372.711 181.478C346.094 222.532 313.753 219.779 282.932 228.656" stroke="black" stroke-width="10"/>
<path d="M319.409 125.303C298.009 149.42 276.786 173.591 277.823 204.504Z" fill="white"/>
<path d="M319.409 125.303C298.009 149.42 276.786 173.591 277.823 204.504" stroke="black" stroke-width="10"/>
<path d="M131.526 106.708C156.124 135.792 189.803 152.233 237.45 149.227Z" fill="white"/>
<path d="M131.526 106.708C156.124 135.792 189.803 152.233 237.45 149.227" stroke="black" stroke-width="10"/>
</svg>
