<svg width="410" height="467" viewBox="0 0 410 467" fill="none" xmlns="http://www.w3.org/2000/svg">
<path d="M151.589 19.4293C119.447 34.3693 86.64 43.8624 56.6124 76.0775C31.748 95.6586 13.2479 130.914 8.87147 200.953C6.78424 250.2 -5.15103 298.19 27.442 351.864C55.4253 375.454 38.2826 383.483 114.323 423.644C153.496 440.054 181.617 476.238 241.828 455.012C270.955 446.763 280.792 450.019 330.688 429.382C351.829 424.566 369.34 412.445 379.081 384.681C389.573 366.718 398.34 341.778 404.289 305.437C402.246 274.041 397.514 261.124 393.24 245.063C386.405 202.849 388.969 185.263 393.43 172.649C393.892 151.386 389.654 130.11 376.355 108.811C369.371 85.7928 364.772 64.0258 323.952 38.8463C286.783 10.9044 262.66 -10.1099 151.589 19.4293Z" fill="white" stroke="black" stroke-width="10"/>
<path d="M222.077 425.65C236.604 418.718 236.765 406.614 280.738 410.286C291.374 408.909 302.006 408.706 312.677 393.99L335.991 379.396L355.864 362.207C371.37 345.351 374.966 327.14 369.799 307.933C367.075 286.624 362.72 260.93 366.484 257.062C368.531 243.85 364.453 222.427 359.736 200.147C361.901 171.391 382.299 175.397 355.701 94.9639C353.969 77.8172 344.905 69.0485 328.183 69.0298C314.574 66.3505 310.916 60.0792 293.759 46.5256C281.566 39.3098 275.259 32.1095 248.126 24.8545C227.429 27.4764 206.758 20.5956 186.023 37.623L149.731 70.2866C120.469 94.5406 117.336 107.988 115.115 121.058C106.984 140.577 110.16 160.126 113.237 179.674C113.926 196.335 119.662 210.129 136.414 217.666C128.368 227.252 119.338 231.855 115.605 263.302C107.016 317.909 120.222 331.906 129.161 353.854C146.623 379.231 164.102 398.343 181.575 419.509" fill="white"/>
<path d="M222.077 425.65C236.604 418.718 236.765 406.614 280.738 410.286C291.374 408.909 302.006 408.706 312.677 393.99L335.991 379.396L355.864 362.207C371.37 345.351 374.966 327.14 369.799 307.933C367.075 286.624 362.72 260.93 366.484 257.062C368.531 243.85 364.453 222.427 359.736 200.147C361.901 171.391 382.299 175.397 355.701 94.9639C353.969 77.8172 344.905 69.0485 328.183 69.0298C314.574 66.3505 310.916 60.0792 293.759 46.5256C281.566 39.3098 275.259 32.1095 248.126 24.8545C227.429 27.4764 206.758 20.5956 186.023 37.623L149.731 70.2866C120.469 94.5406 117.336 107.988 115.115 121.058C106.984 140.577 110.16 160.126 113.237 179.674C113.926 196.335 119.662 210.129 136.414 217.666C128.368 227.252 119.338 231.855 115.605 263.302C107.016 317.909 120.222 331.906 129.161 353.854C146.623 379.231 164.102 398.343 181.575 419.509" stroke="black" stroke-width="10"/>
<path d="M270.391 81.8096C254.671 92.527 242.346 109.221 235.766 136.029C238.594 156.995 243.45 173.932 248.555 190.373C252.853 213.049 264.705 211.775 258.699 267.124C247.929 277.574 245.265 285.344 248.291 291.235C267.763 332.725 260.975 369.37 229.898 401.532" fill="white"/>
<path d="M270.391 81.8096C254.671 92.527 242.346 109.221 235.766 136.029C238.594 156.995 243.45 173.932 248.555 190.373C252.853 213.049 264.705 211.775 258.699 267.124C247.929 277.574 245.265 285.344 248.291 291.235C267.763 332.725 260.975 369.37 229.898 401.532" stroke="black" stroke-width="10"/>
<path d="M299.857 351.715C290.286 330.928 279.384 310.802 251.719 299.003C247.901 287.235 234.914 282.561 210.371 286.826" fill="white"/>
<path d="M299.857 351.715C290.286 330.928 279.384 310.802 251.719 299.003C247.901 287.235 234.914 282.561 210.371 286.826" stroke="black" stroke-width="10"/>
<path d="M170.908 213.446C210.051 210.189 244.436 209.69 256.23 222.29Z" fill="white"/>
<path d="M170.908 213.446C210.051 210.189 244.436 209.69 256.23 222.29" stroke="black" stroke-width="10"/>
<path d="M354.467 237.203C323.845 228.7 302.694 211.952 255.379 217.978Z" fill="white"/>
<path d="M354.467 237.203C323.845 228.7 302.694 211.952 255.379 217.978" stroke="black" stroke-width="10"/>
<path d="M343.359 199.242L301.06 221.545Z" fill="white"/>
<path d="M343.359 199.242L301.06 221.545" stroke="black" stroke-width="10"/>
<path d="M174.604 118.628C202.689 124.161 222.322 129.672 236.63 135.17Z" fill="white"/>
<path d="M174.604 118.628C202.689 124.161 222.322 129.672 236.63 135.17" stroke="black" stroke-width="10"/>
<path d="M211.807 67.8633C222.951 89.7316 236.901 111.607 234.911 133.441Z" fill="white"/>
<path d="M211.807 67.8633C222.951 89.7316 236.901 111.607 234.911 133.441" stroke="black" stroke-width="10"/>
</svg>
