<svg width="360" height="394" viewBox="0 0 360 394" fill="none" xmlns="http://www.w3.org/2000/svg">
<path d="M23.1928 281.045C17.8446 243.601 -6.08861 240.02 13.1707 157.742C23.2036 99.039 51.9785 50.5514 116.975 21.8067C156.319 16.2056 192.179 -11.8467 237.664 22.1226C250.922 33.7099 260.799 39.8863 269.502 44.6199C287.583 63.4433 322.727 64.5555 339.952 136.184C339.937 163.48 333.281 174.045 345.734 232.751C349.682 255.373 361.168 269.558 348.115 311.206C334.047 330.467 335.318 350.865 291.932 367.956C280.025 378.953 185.417 389.331 154.809 388.286C124.2 387.241 125.724 397.694 79.0375 353.605C60.522 330.231 43.7059 320.748 23.1928 281.045Z" fill="white" stroke="black" stroke-width="10"/>
<path d="M240.173 51.4396C205.182 -0.720285 166.128 22.4695 126.36 58.9003C103.755 86.0508 96.7696 114.662 99.4129 144.175C100.386 161.899 108.096 173.881 125.187 177.863C113.907 184.168 109.4 195.92 109.582 211.443L124.864 301.139C139.434 338.1 151.006 337.904 163.531 349.516C170.215 352.898 176.983 356.196 185.924 357.333C198.291 353.162 210.655 350.607 223.104 315.189C212.577 311.814 256.297 294.998 224.106 261.743C213.737 250.403 248.794 213.648 228.621 183.306C218.297 149.922 208.465 121.074 200.369 108.232C222.165 104.687 215.659 84.8723 222.876 72.946" fill="white"/>
<path d="M240.173 51.4396C205.182 -0.720285 166.128 22.4695 126.36 58.9003C103.755 86.0508 96.7696 114.662 99.4129 144.175C100.386 161.899 108.096 173.881 125.187 177.863C113.907 184.168 109.4 195.92 109.582 211.443L124.864 301.139C139.434 338.1 151.006 337.904 163.531 349.516C170.215 352.898 176.983 356.196 185.924 357.333C198.291 353.162 210.655 350.607 223.104 315.189C212.577 311.814 256.297 294.998 224.106 261.743C213.737 250.403 248.794 213.648 228.621 183.306C218.297 149.922 208.465 121.074 200.369 108.232C222.165 104.687 215.659 84.8723 222.876 72.946" stroke="black" stroke-width="10"/>
<path d="M174.526 101.268L200.37 108.232Z" fill="white"/>
<path d="M174.526 101.268L200.37 108.232" stroke="black" stroke-width="10"/>
<path d="M276.053 176.534C262.357 182.702 250.503 193.198 230.343 184.173Z" fill="white"/>
<path d="M276.053 176.534C262.357 182.702 250.503 193.198 230.343 184.173" stroke="black" stroke-width="10"/>
<path d="M192.144 286.659C208.25 284.183 220.303 276.002 224.979 257.435Z" fill="white"/>
<path d="M192.144 286.659C208.25 284.183 220.303 276.002 224.979 257.435" stroke="black" stroke-width="10"/>
<path d="M162.258 177.098C183.645 172.973 207.193 160.297 224.338 172.95Z" fill="white"/>
<path d="M162.258 177.098C183.645 172.973 207.193 160.297 224.338 172.95" stroke="black" stroke-width="10"/>
<path d="M229.919 346.241C243.54 345.818 256.413 346.972 272.171 342.042C294.693 316.884 302.77 316.85 317.094 305.952C319.788 305.137 348.172 275.578 327.635 230.979C316.294 208.158 313.543 200.274 318.276 183.541C307.142 144.523 313.179 135.739 310.705 111.969" fill="white"/>
<path d="M229.919 346.241C243.54 345.818 256.413 346.972 272.171 342.042C294.693 316.884 302.77 316.85 317.094 305.952C319.788 305.137 348.172 275.578 327.635 230.979C316.294 208.158 313.543 200.274 318.276 183.541C307.142 144.523 313.179 135.739 310.705 111.969" stroke="black" stroke-width="10"/>
</svg>
